<?xml version="1.0" standalone="no"?>
<!DOCTYPE svg PUBLIC "-//W3C//DTD SVG 20010904//EN"
 "http://www.w3.org/TR/2001/REC-SVG-20010904/DTD/svg10.dtd">
<svg version="1.0" xmlns="http://www.w3.org/2000/svg"
 width="2592.000000pt" height="2592.000000pt" viewBox="0 0 2592.000000 2592.000000"
 preserveAspectRatio="xMidYMid meet">
<metadata>
Created by potrace 1.11, written by Peter Selinger 2001-2013
</metadata>
<g transform="translate(0.000000,2592.000000) scale(0.100000,-0.100000)"
fill="#000000" stroke="none">
<path d="M11339 25716 c0 -12 -1 -452 -1 -979 l-1 -959 -22 -8 c-12 -5 -38
-11 -58 -14 -20 -3 -56 -10 -79 -15 -24 -6 -54 -12 -68 -15 -102 -21 -331 -79
-500 -126 -63 -18 -119 -33 -125 -34 -20 -4 -193 -59 -375 -118 -313 -102
-623 -221 -1000 -383 -235 -101 -786 -376 -922 -462 -21 -13 -41 -23 -44 -23
-10 0 -464 -274 -464 -280 0 -7 118 -129 480 -500 157 -161 324 -332 371 -381
47 -49 91 -89 99 -89 7 0 21 6 29 14 46 40 628 343 866 451 361 164 785 324
1170 443 124 38 303 90 335 97 8 2 78 20 155 39 77 20 143 36 146 36 3 0 6
-292 6 -650 0 -357 -1 -650 -3 -650 -1 0 -92 -27 -201 -59 -302 -91 -716 -240
-923 -333 -621 -279 -1020 -503 -1520 -853 -64 -45 -333 -245 -340 -254 -4 -5
-32 -27 -106 -83 -11 -8 -94 72 -361 348 -86 89 -460 474 -778 799 -540 555
-651 669 -658 681 -4 8 -16 14 -25 14 -54 -1 -826 -743 -1093 -1051 -44 -51
-124 -143 -134 -153 -11 -11 -257 -309 -278 -336 -7 -8 -28 -35 -47 -60 -19
-25 -37 -47 -40 -50 -7 -7 -243 -326 -307 -415 -64 -91 -343 -511 -343 -518 0
-3 -18 -33 -40 -66 -22 -33 -40 -64 -40 -70 0 -5 -3 -11 -7 -13 -5 -1 -15 -15
-23 -30 -8 -15 -61 -107 -116 -205 -220 -386 -390 -729 -553 -1113 -32 -74
-75 -178 -96 -230 -20 -52 -43 -108 -50 -125 -44 -103 -168 -460 -235 -675
-23 -74 -48 -154 -56 -177 -7 -23 -16 -52 -18 -65 -3 -13 -12 -48 -21 -78 -14
-48 -25 -88 -40 -150 -2 -8 -13 -51 -25 -95 -21 -82 -97 -403 -104 -442 -3
-13 -12 -58 -20 -100 -21 -103 -25 -122 -32 -163 -3 -19 -9 -55 -14 -80 -5
-25 -11 -58 -14 -75 -2 -16 -9 -57 -14 -90 -12 -68 -18 -108 -33 -215 -6 -41
-12 -86 -14 -100 -2 -14 -7 -47 -9 -75 -3 -27 -7 -66 -10 -85 -10 -68 -16
-126 -31 -301 -3 -24 -7 -80 -10 -124 -4 -44 -8 -102 -10 -130 -27 -336 -27
-1201 0 -1475 2 -25 7 -85 10 -135 3 -49 8 -106 10 -125 2 -19 6 -66 10 -105
3 -38 8 -81 11 -95 2 -14 6 -47 8 -75 2 -27 6 -66 10 -85 3 -19 8 -57 11 -85
9 -75 14 -114 25 -180 6 -33 17 -103 25 -155 8 -52 17 -108 20 -125 11 -61 37
-200 40 -215 11 -58 48 -231 55 -260 5 -19 11 -46 14 -60 2 -14 11 -52 19 -85
9 -33 18 -71 21 -85 7 -38 72 -283 101 -385 14 -49 32 -113 40 -141 28 -104
184 -565 244 -722 68 -178 191 -478 240 -585 17 -37 31 -69 31 -71 0 -7 123
-264 197 -411 95 -189 145 -282 251 -470 47 -82 90 -159 96 -170 6 -11 54 -89
106 -173 52 -84 100 -161 105 -170 13 -23 240 -360 260 -386 13 -18 16 -17 52
22 21 22 165 170 319 329 155 158 319 326 364 373 45 47 113 117 152 156 l69
71 -91 139 c-50 76 -94 148 -99 159 -5 11 -21 37 -35 58 -14 21 -26 40 -26 42
0 2 -21 39 -46 82 -202 341 -430 802 -599 1213 -54 130 -69 170 -129 333 -54
146 -153 440 -160 472 -1 6 -14 48 -28 95 -35 116 -114 406 -123 450 -2 8 -13
56 -25 105 -18 77 -39 169 -56 250 -7 33 -24 127 -35 185 -27 151 -40 227 -43
250 -5 39 -37 262 -41 290 -3 14 -7 52 -10 85 -3 33 -10 94 -15 135 -5 41 -12
116 -15 165 -4 50 -8 101 -10 115 -2 14 -7 88 -11 165 -3 77 -8 167 -9 200 -5
74 -4 644 0 740 3 85 16 287 20 335 2 19 6 73 9 120 4 47 9 101 11 120 3 19 7
60 10 90 8 80 15 142 20 170 2 14 7 49 10 79 4 30 9 63 11 75 2 12 6 41 9 66
3 25 9 59 12 75 3 17 7 39 9 50 3 20 13 84 19 120 4 29 58 301 70 355 19 89
16 75 64 274 41 167 95 364 133 484 11 34 21 70 23 80 2 9 4 17 4 17 1 0 30
88 66 195 36 107 69 204 74 215 5 11 39 98 76 194 112 291 204 499 367 826 78
157 256 484 318 585 5 8 51 83 101 165 219 356 464 702 743 1045 60 74 112
137 115 140 3 3 49 54 101 115 52 60 104 119 116 132 l21 23 294 -301 c162
-166 332 -341 379 -389 47 -48 212 -218 366 -376 155 -159 326 -334 379 -389
53 -55 164 -169 247 -253 l149 -152 52 57 c239 264 545 558 787 753 30 25 57
48 60 51 30 38 505 372 730 515 319 201 815 445 1195 587 128 48 296 107 304
107 4 0 8 -301 8 -670 l0 -669 -54 -26 c-29 -14 -56 -25 -58 -25 -3 0 -35 -14
-72 -31 -682 -314 -1227 -691 -1733 -1199 -182 -183 -237 -242 -383 -419 -142
-169 -387 -513 -476 -666 -13 -22 -32 -53 -41 -70 -232 -398 -403 -778 -538
-1195 -35 -109 -84 -281 -98 -340 -4 -20 -10 -44 -19 -77 -26 -105 -94 -457
-100 -528 -2 -16 -5 -48 -9 -70 -17 -125 -19 -142 -32 -305 -3 -47 -8 -107
-10 -135 -6 -69 -6 -520 0 -625 4 -80 12 -175 21 -265 2 -22 7 -67 10 -100 5
-52 54 -365 70 -450 7 -32 62 -277 71 -310 3 -11 7 -30 10 -43 8 -41 102 -344
135 -437 153 -435 384 -907 600 -1227 22 -31 39 -61 39 -67 0 -5 3 -11 8 -13
4 -1 25 -29 46 -62 85 -129 306 -414 431 -555 131 -149 373 -394 501 -506 43
-38 81 -72 84 -75 5 -5 92 -77 133 -110 11 -8 24 -20 31 -25 6 -6 72 -56 146
-112 358 -267 707 -472 1110 -654 l105 -47 38 36 39 37 -5 -30 c-8 -62 2 -75
88 -107 393 -146 767 -252 1075 -303 19 -3 42 -8 50 -10 8 -2 40 -7 70 -10
l55 -6 0 692 0 693 -75 18 c-41 10 -86 20 -100 22 -47 10 -245 67 -355 102
-534 173 -1103 493 -1508 846 -119 103 -152 134 -265 248 -646 648 -1080 1492
-1233 2395 -27 162 -27 160 -35 240 -3 39 -8 78 -10 88 -27 145 -20 761 10
927 3 14 8 48 11 75 10 77 24 173 30 205 117 604 338 1154 663 1655 62 94 239
336 279 380 10 11 44 52 76 90 115 138 375 393 534 524 431 355 929 627 1468
803 86 27 412 115 465 124 14 3 30 6 35 8 7 2 10 1408 10 4192 l0 4189 -668 1
-667 1 -1 -21z"/>
<path d="M13836 25731 c-3 -3 -4 -1872 -4 -4153 -1 -3877 0 -4147 16 -4152 9
-2 55 -7 102 -11 47 -4 96 -8 110 -10 14 -2 45 -6 70 -10 45 -6 207 -32 245
-39 695 -137 1302 -409 1865 -834 69 -52 127 -98 130 -101 3 -3 15 -14 26 -24
19 -15 24 -16 35 -4 8 8 134 138 280 288 147 151 306 315 353 364 48 50 137
141 198 202 l111 113 -34 30 c-39 35 -303 248 -335 270 -12 8 -80 56 -150 106
-276 195 -607 385 -894 513 -52 24 -108 49 -125 56 -124 56 -263 108 -494 184
l-174 57 0 648 c0 356 2 649 5 651 5 6 286 -67 428 -111 165 -51 273 -88 455
-157 145 -54 217 -84 400 -165 33 -14 165 -79 294 -144 129 -65 237 -114 240
-109 4 5 130 136 281 292 151 155 306 314 344 353 37 39 125 128 193 198 l125
126 -42 27 c-46 29 -53 33 -230 134 -120 69 -549 287 -675 343 -241 108 -611
251 -845 326 -264 86 -640 186 -845 227 -112 23 -117 24 -123 29 -3 4 -6 1093
-3 1253 1 30 2 31 34 23 17 -5 50 -11 72 -14 22 -3 51 -8 65 -11 14 -3 39 -8
55 -11 163 -29 578 -128 773 -184 369 -106 879 -285 1100 -386 29 -13 55 -24
57 -24 6 0 178 -77 310 -138 110 -52 343 -169 475 -240 82 -44 109 -58 188
-103 20 -12 57 -33 82 -47 172 -96 513 -316 760 -490 196 -139 520 -389 636
-491 22 -20 69 -61 105 -91 35 -30 89 -78 119 -106 l54 -52 -101 -103 c-56
-57 -155 -159 -220 -225 -159 -163 -619 -637 -729 -751 -49 -50 -214 -220
-367 -377 -153 -156 -303 -311 -333 -343 l-55 -58 53 -49 c178 -166 452 -444
548 -557 12 -13 42 -48 68 -78 26 -30 87 -104 136 -165 49 -61 92 -112 96
-114 6 -2 117 108 325 323 54 55 219 225 369 378 149 154 304 313 345 355 41
43 192 199 336 347 424 436 438 449 720 740 149 152 305 314 349 359 43 44
130 134 194 198 126 129 122 118 62 178 -14 14 -36 39 -48 55 -13 17 -60 70
-105 120 -262 288 -578 601 -852 845 -27 25 -52 47 -55 50 -5 6 -275 233 -300
253 -8 7 -42 34 -75 60 -33 27 -67 54 -75 60 -8 7 -53 41 -100 77 -47 36 -87
67 -90 70 -11 12 -265 194 -400 286 -117 81 -294 197 -446 291 -559 349 -1246
687 -1894 933 -264 100 -612 213 -950 309 -114 33 -456 118 -505 127 -16 3
-46 9 -65 14 -19 5 -51 12 -70 15 -19 3 -51 10 -70 15 -19 5 -52 11 -74 14
-21 4 -41 8 -45 10 -3 2 -28 7 -56 10 -27 4 -57 9 -65 11 -8 2 -28 7 -45 10
-97 17 -144 25 -180 30 -107 15 -115 18 -116 34 0 9 -1 428 -1 932 l0 916
-664 0 c-366 0 -666 -3 -668 -6z"/>
<path d="M6386 17423 c-44 -71 -87 -140 -97 -155 -11 -15 -19 -29 -19 -32 0
-2 -22 -42 -48 -88 -128 -221 -275 -510 -379 -743 -71 -159 -193 -457 -193
-470 0 -4 -7 -21 -15 -38 -17 -38 -143 -417 -178 -537 -38 -129 -88 -312 -93
-340 -3 -14 -14 -59 -24 -100 -10 -41 -21 -86 -24 -100 -3 -14 -14 -68 -25
-120 -11 -52 -23 -111 -26 -130 -3 -19 -10 -53 -15 -75 -5 -22 -11 -58 -14
-80 -4 -22 -11 -65 -16 -95 -5 -30 -12 -75 -15 -100 -3 -25 -7 -52 -10 -60 -2
-8 -7 -43 -10 -77 -3 -34 -7 -70 -9 -80 -2 -10 -7 -52 -11 -93 -4 -41 -8 -82
-10 -90 -2 -8 -6 -58 -10 -110 -5 -52 -9 -108 -11 -125 -31 -351 -21 -1100 21
-1445 2 -19 7 -60 10 -90 3 -30 8 -68 10 -85 2 -16 6 -57 10 -90 3 -33 8 -67
11 -75 2 -8 6 -35 9 -60 3 -25 10 -70 15 -100 38 -223 42 -242 71 -385 11 -55
29 -134 39 -175 10 -41 21 -86 24 -100 47 -224 250 -866 341 -1075 7 -16 27
-66 45 -110 119 -296 305 -676 487 -995 190 -334 466 -740 717 -1055 104 -131
271 -331 301 -360 6 -5 21 -22 34 -37 l24 -27 -111 -113 c-61 -62 -154 -158
-207 -213 -54 -55 -215 -221 -359 -369 -143 -147 -299 -307 -345 -355 -46 -47
-204 -210 -351 -361 -147 -151 -304 -313 -349 -359 -44 -46 -81 -86 -81 -91 0
-18 519 -527 715 -701 28 -24 52 -46 55 -49 16 -18 273 -233 370 -310 63 -51
124 -100 135 -109 44 -35 256 -193 365 -270 63 -45 122 -88 131 -95 9 -7 20
-15 25 -17 5 -2 83 -53 174 -114 202 -134 477 -306 541 -339 8 -4 23 -12 34
-19 30 -18 209 -118 305 -171 139 -75 670 -336 684 -336 2 0 34 -14 72 -32 38
-17 71 -32 74 -33 7 -2 41 -16 156 -65 108 -46 457 -181 519 -200 22 -7 45
-16 50 -20 6 -5 13 -8 18 -9 4 0 89 -27 190 -60 347 -113 951 -277 1092 -296
11 -1 37 -7 58 -13 20 -6 37 -8 37 -6 0 3 8 0 19 -5 17 -10 18 -49 18 -1091 0
-594 3 -1083 7 -1087 8 -9 1325 -11 1327 -3 1 3 2 1338 3 2968 l1 2962 -30 5
c-16 3 -79 12 -140 20 -196 27 -548 97 -730 146 -22 5 -58 15 -80 20 -226 56
-735 234 -970 339 -52 23 -69 31 -269 124 -65 31 -121 56 -124 56 -2 0 -44
-40 -91 -89 -47 -49 -203 -209 -346 -356 -143 -147 -319 -328 -392 -403 l-132
-137 67 -38 c149 -87 547 -285 730 -363 17 -8 47 -20 65 -28 299 -129 648
-253 1033 -365 l71 -21 0 -650 c0 -357 -3 -650 -6 -650 -6 0 -299 76 -406 105
-420 113 -989 322 -1420 520 -90 42 -424 206 -470 231 -16 10 -37 21 -47 25
-51 25 -316 176 -458 262 -373 226 -685 444 -1082 757 -31 25 -57 47 -57 50
-1 7 66 77 428 449 291 300 304 313 696 716 149 153 312 321 363 374 52 53
145 148 208 212 126 128 123 117 54 169 -18 14 -38 30 -44 35 -6 6 -47 39 -91
75 -44 35 -100 83 -125 106 -25 23 -63 57 -84 75 -139 119 -471 454 -591 597
-16 20 -37 43 -46 52 -38 39 -235 287 -326 410 -123 167 -301 431 -379 565
-16 27 -33 57 -39 66 -225 378 -441 849 -594 1290 -27 80 -126 404 -136 446
-2 10 -13 52 -25 93 -11 41 -22 87 -25 102 -3 16 -12 58 -21 95 -9 38 -18 77
-20 88 -2 11 -13 65 -24 120 -10 55 -26 143 -35 195 -8 52 -17 106 -19 120 -7
38 -26 190 -30 235 -2 22 -7 69 -10 105 -4 36 -9 86 -11 111 -25 232 -25 1007
-1 1159 3 14 7 59 10 100 6 74 23 216 32 275 2 17 6 44 8 60 9 66 32 206 42
248 3 16 7 38 9 50 3 21 18 100 30 162 3 17 20 86 36 155 17 69 32 132 34 140
36 161 212 697 271 827 8 17 14 34 14 38 0 3 8 25 19 48 10 23 40 92 66 152
72 167 199 422 297 599 l89 159 -74 76 c-41 42 -122 124 -178 183 -88 89 -646
663 -687 705 -7 7 -14 13 -15 13 -2 0 -38 -57 -81 -127z"/>
<path d="M17246 10509 c-319 -453 -576 -730 -966 -1041 -105 -84 -321 -234
-410 -286 -19 -11 -75 -43 -125 -72 -168 -98 -530 -270 -567 -270 -8 0 -18 -4
-23 -9 -9 -8 -261 -99 -295 -106 -8 -2 -55 -15 -105 -30 -49 -14 -101 -28
-115 -31 -14 -2 -32 -7 -40 -10 -15 -5 -133 -32 -180 -40 -14 -2 -47 -9 -75
-14 -27 -5 -68 -12 -90 -15 -22 -4 -66 -11 -98 -16 -61 -11 -74 -12 -222 -24
-49 -4 -93 -9 -97 -11 -3 -2 -6 -312 -7 -689 l0 -684 72 4 c98 6 217 15 247
20 14 2 50 6 80 10 58 6 192 25 225 31 10 2 37 6 60 9 22 3 47 8 55 10 8 2 31
7 50 10 19 3 87 17 150 31 63 14 123 27 132 29 57 12 369 103 471 137 855 285
1641 772 2282 1414 207 208 508 558 568 661 8 12 13 6 -423 453 -164 168 -352
361 -417 429 l-120 124 -17 -24z"/>
<path d="M19090 8579 c-47 -58 -192 -231 -205 -245 -5 -6 -35 -40 -65 -75 -76
-88 -466 -478 -570 -569 -47 -41 -87 -77 -90 -80 -21 -23 -268 -220 -392 -313
-437 -326 -908 -601 -1408 -820 -119 -52 -458 -185 -490 -192 -8 -2 -49 -15
-90 -30 -68 -24 -351 -111 -392 -121 -10 -2 -26 -6 -35 -8 -10 -2 -54 -13 -98
-25 -84 -21 -253 -60 -295 -67 -14 -3 -59 -11 -100 -19 -113 -23 -121 -24
-165 -30 -22 -3 -65 -10 -95 -15 -30 -5 -73 -12 -95 -15 -151 -19 -209 -25
-275 -30 -41 -4 -85 -8 -98 -10 -12 -2 -77 -7 -143 -10 -67 -4 -128 -8 -137
-9 -16 -3 -17 -56 -19 -666 l-2 -663 147 7 c81 4 163 8 182 11 19 2 69 6 110
9 353 29 774 94 1113 172 84 19 159 37 167 39 8 1 44 11 80 20 36 9 72 18 80
20 38 8 277 79 390 116 695 225 1315 516 1935 907 66 42 122 80 123 84 2 4 7
8 12 8 9 0 194 126 303 205 226 167 484 373 626 502 l46 41 95 -98 c52 -54
223 -230 380 -390 157 -161 328 -337 380 -390 52 -54 222 -228 376 -386 155
-159 349 -358 431 -443 l149 -153 94 88 c177 166 421 415 610 620 61 67 178
199 199 227 12 15 4 27 -82 115 -53 53 -141 144 -198 202 -159 164 -629 647
-1125 1156 -166 170 -344 352 -395 406 -52 53 -223 228 -380 390 -158 161
-347 355 -421 432 l-134 138 -34 -43z"/>
<path d="M18872 4905 c-192 -129 -453 -288 -644 -393 -32 -18 -84 -46 -115
-64 -181 -100 -876 -428 -909 -428 -3 0 -24 -9 -47 -19 -72 -33 -490 -189
-522 -195 -5 -1 -23 -7 -40 -13 -23 -9 -215 -70 -245 -78 -3 -1 -12 -4 -20 -8
-8 -3 -49 -15 -90 -27 -41 -11 -82 -22 -90 -25 -82 -23 -514 -129 -615 -150
-71 -15 -139 -29 -150 -31 -11 -2 -45 -8 -75 -14 -30 -5 -93 -16 -140 -24 -87
-15 -144 -24 -193 -31 -32 -5 -100 -14 -137 -20 -23 -3 -87 -12 -155 -20 -17
-2 -61 -7 -100 -10 -38 -4 -81 -8 -95 -11 -14 -2 -61 -6 -105 -10 -44 -3 -96
-7 -115 -9 -19 -2 -98 -7 -175 -11 -184 -9 -216 -11 -242 -13 l-21 -1 -1
-1644 c0 -1270 3 -1645 12 -1648 7 -2 307 -4 667 -4 l655 1 2 1020 c1 561 2
1030 2 1041 1 18 9 23 49 29 26 5 52 9 59 11 6 1 30 5 51 8 22 3 51 7 64 10
12 3 37 7 53 10 17 2 82 14 145 26 63 12 126 24 140 26 14 3 33 7 42 10 9 3
27 7 40 9 92 18 137 28 163 35 17 5 44 12 60 15 30 5 210 50 395 99 398 104
1095 348 1445 505 22 10 56 25 75 34 251 111 628 296 810 397 52 29 120 66
150 83 242 133 605 360 879 550 l143 99 -55 57 c-31 31 -95 97 -142 146 -48
50 -219 225 -380 390 -161 165 -307 315 -324 333 -17 17 -35 32 -39 32 -4 0
-58 -34 -120 -75z"/>
</g>
</svg>
