<?xml version="1.0" encoding="UTF-8"?>
<svg width="88px" height="24px" viewBox="0 0 88 24" version="1.1" xmlns="http://www.w3.org/2000/svg" xmlns:xlink="http://www.w3.org/1999/xlink">
    <!-- Generator: Sketch 52.4 (67378) - http://www.bohemiancoding.com/sketch -->
    <title>logo</title>
    <desc>Created with Sketch.</desc>
    <defs>
        <linearGradient x1="50%" y1="0%" x2="50%" y2="100%" id="linearGradient-1">
            <stop stop-color="#FFE275" offset="0%"></stop>
            <stop stop-color="#F0B736" offset="100%"></stop>
        </linearGradient>
    </defs>
    <g id="首页定稿" stroke="none" stroke-width="1" fill="none" fill-rule="evenodd">
        <g id="首页V3头部换底色" transform="translate(-20.000000, -18.000000)">
            <g id="导航栏">
                <g id="logo" transform="translate(20.000000, 18.000000)">
                    <path d="M28.6097715,15.1396945 C28.6097715,15.5815625 28.6918597,15.9949067 28.8555489,16.3804778 C29.0194817,16.7657987 29.2416314,17.1030796 29.5224851,17.3918201 C29.8035824,17.6810609 30.1329095,17.9079999 30.5114408,18.0723868 C30.8897286,18.237024 31.2935928,18.3193425 31.7227899,18.3193425 C32.1517433,18.3193425 32.555364,18.237024 32.9338953,18.0723868 C33.3121831,17.9079999 33.6419974,17.6810609 33.9228511,17.3918201 C34.2037048,17.1030796 34.4241493,16.7657987 34.5841848,16.3804778 C34.7439767,15.9949067 34.8241162,15.5815625 34.8241162,15.1396945 C34.8241162,14.6980767 34.7439767,14.2847324 34.5841848,13.8991613 C34.4241493,13.5138404 34.2037048,13.1765595 33.9228511,12.8875689 C33.6419974,12.5985782 33.3121831,12.3716392 32.9338953,12.2072523 C32.555364,12.0426152 32.1517433,11.9600464 31.7227899,11.9600464 C31.2935928,11.9600464 30.8897286,12.0426152 30.5114408,12.2072523 C30.1329095,12.3716392 29.8035824,12.5985782 29.5224851,12.8875689 C29.2416314,13.1765595 29.0194817,13.5138404 28.8555489,13.8991613 C28.6918597,14.2847324 28.6097715,14.6980767 28.6097715,15.1396945 Z M26,6.38240128 C26,6.19024125 26.0331276,6.00984101 26.0996263,5.84145077 C26.1656379,5.67306053 26.2574695,5.52718905 26.374634,5.40283549 C26.4915549,5.27873213 26.6299112,5.18015003 26.7899467,5.10809002 C26.9497386,5.03603001 27.1234148,5 27.3107318,5 C27.4980488,5 27.6695327,5.03603001 27.8256708,5.10809002 C27.9815653,5.18015003 28.1182166,5.27873213 28.2353811,5.40283549 C28.3523019,5.52718905 28.4419413,5.67306053 28.5045427,5.84145077 C28.5669005,6.00984101 28.5980794,6.19024125 28.5980794,6.38240128 L28.5980794,10.9021654 C28.7305897,10.669972 28.910112,10.4535418 29.1364026,10.2531249 C29.3624496,10.0529582 29.6162654,9.87856293 29.8971191,9.73018936 C30.1779728,9.582066 30.4744159,9.46571911 30.7864485,9.38164909 C31.0984811,9.29757908 31.4105137,9.25529386 31.7227899,9.25529386 C32.5027496,9.25529386 33.2400819,9.40992264 33.9345432,9.71817936 C34.6287609,10.0269365 35.2335829,10.4475368 35.7485219,10.9804806 C36.2634609,11.5134245 36.6709789,12.1366935 36.9713194,12.8497874 C37.2716599,13.5631315 37.421952,14.3242654 37.421952,15.1336895 C37.421952,15.9433638 37.2716599,16.702496 36.9713194,17.4118367 C36.6709789,18.1209273 36.2634609,18.7399428 35.7485219,19.2688833 C35.2335829,19.7978238 34.6287609,20.2166726 33.9345432,20.5251796 C33.2400819,20.8336865 32.5027496,20.9880651 31.7227899,20.9880651 C30.9345483,20.9880651 30.1955109,20.8336865 29.5049469,20.5251796 C28.8146266,20.2166726 28.2078559,19.7978238 27.6851222,19.2688833 C27.1623884,18.7399428 26.7507295,18.1209273 26.4506326,17.4118367 C26.1500485,16.702496 26,15.9433638 26,15.1336895 L26,6.38240128 Z M39.1306288,10.5897052 C39.1306288,10.4135585 39.1654615,10.2431666 39.2353705,10.0787797 C39.3052794,9.91464298 39.4005212,9.77252462 39.5208523,9.65217439 C39.6411833,9.53182416 39.7831935,9.43574414 39.946152,9.36368413 C40.109354,9.29137391 40.2801072,9.2553439 40.4586552,9.2553439 C40.6374467,9.2553439 40.8043025,9.29137391 40.9597098,9.36368413 C41.1148736,9.43574414 41.249089,9.53182416 41.3616254,9.65217439 C41.4741617,9.77252462 41.5635575,9.91464298 41.629569,10.0787797 C41.6955806,10.2431666 41.7287082,10.4135585 41.7287082,10.5897052 L41.7287082,19.6417438 C41.7287082,19.8261474 41.6955806,19.9982908 41.629569,20.1584241 C41.5635575,20.3188077 41.4724566,20.4589244 41.3557793,20.5792746 C41.239102,20.6993746 41.1034251,20.7937032 40.9480177,20.8617599 C40.7926104,20.9295663 40.6257546,20.9638449 40.4472066,20.9638449 C40.2684151,20.9638449 40.099367,20.9295663 39.9403059,20.8617599 C39.7810012,20.7937032 39.6411833,20.6993746 39.5208523,20.5792746 C39.4005212,20.4589244 39.3052794,20.3188077 39.2353705,20.1584241 C39.1654615,19.9982908 39.1306288,19.8261474 39.1306288,19.6417438 L39.1306288,10.5897052 Z M39.0254,6.59888157 C39.0254,6.39871487 39.0621814,6.21005775 39.1359877,6.03391105 C39.209794,5.85751415 39.3108819,5.70313558 39.4390076,5.57102556 C39.5671334,5.43891553 39.7166947,5.33457864 39.8876915,5.25851529 C40.0586883,5.18245195 40.2452745,5.14417007 40.4472066,5.14417007 C40.641344,5.14417007 40.8237893,5.18245195 40.9947861,5.25851529 C41.1657829,5.33457864 41.3153442,5.43891553 41.44347,5.57102556 C41.5718394,5.70313558 41.6746323,5.85751415 41.752336,6.03391105 C41.8300396,6.21005775 41.8690133,6.39871487 41.8690133,6.59888157 C41.8690133,6.80730515 41.8300396,6.99946518 41.752336,7.17586209 C41.6746323,7.35225899 41.5718394,7.50638735 41.44347,7.63874758 C41.3153442,7.7708576 41.1657829,7.8751945 40.9947861,7.95125784 C40.8237893,8.0275714 40.641344,8.06535286 40.4472066,8.06535286 C40.2452745,8.06535286 40.0586883,8.0275714 39.8876915,7.95125784 C39.7166947,7.8751945 39.5671334,7.7708576 39.4390076,7.63874758 C39.3108819,7.50638735 39.209794,7.35225899 39.1359877,7.17586209 C39.0621814,6.99946518 39.0254,6.80730515 39.0254,6.59888157 Z M43.4243045,7.11568697 C43.4243045,6.92352694 43.4593808,6.74512836 43.5295333,6.58074146 C43.5999294,6.41660477 43.6951712,6.2742362 43.8162331,6.15413618 C43.9372949,6.03378595 44.0756513,5.93770593 44.2317894,5.86564592 C44.3876839,5.7933357 44.555514,5.75730569 44.7350363,5.75730569 C44.914315,5.75730569 45.0860425,5.79158424 45.2499753,5.85964092 C45.4139082,5.9276976 45.5581106,6.02377761 45.6830698,6.14788097 C45.8075418,6.27248474 45.9071681,6.41660477 45.981218,6.58074146 C46.0555115,6.74512836 46.0925364,6.92352694 46.0925364,7.11568697 L46.0925364,9.05104876 L50.2003567,9.05104876 C50.3796353,9.05104876 50.5494142,9.08707877 50.7092061,9.15938899 C50.8692415,9.231449 51.0075979,9.32752902 51.1247624,9.44787925 C51.2419268,9.56797927 51.3354635,9.71034784 51.4056161,9.87448453 C51.4757686,10.0388714 51.5108448,10.2132667 51.5108448,10.39742 C51.5108448,10.5738169 51.4757686,10.7402055 51.4056161,10.8963355 C51.3354635,11.0527158 51.2419268,11.1890793 51.1247624,11.3049258 C51.0075979,11.4212727 50.8692415,11.5135996 50.7092061,11.5816563 C50.5494142,11.649713 50.3796353,11.6837413 50.2003567,11.6837413 L46.0925364,11.6837413 L46.0925364,15.1939146 C46.0925364,15.6347818 46.1704837,16.0453737 46.3266218,16.4261909 C46.4825163,16.8067578 46.6971148,17.1392847 46.9701738,17.4237717 C47.2432328,17.7082586 47.5650088,17.9306938 47.9357454,18.0908272 C48.3062384,18.2512108 48.709859,18.3312775 49.1468508,18.3312775 C49.5290359,18.3312775 49.8841831,18.2752308 50.2120487,18.1631374 C50.5396708,18.0507939 50.8439087,17.8706438 51.1247624,17.6221869 C51.2806569,17.4858233 51.4328976,17.3757317 51.581241,17.2914114 C51.7293407,17.2073414 51.9047221,17.1653064 52.1078721,17.1653064 C52.2559719,17.1653064 52.4004179,17.1975833 52.5407229,17.2613864 C52.6812716,17.32569 52.8059872,17.415765 52.9153569,17.5318617 C53.0244831,17.6482086 53.1121737,17.7843219 53.1786725,17.9407022 C53.2449276,18.0968322 53.2780552,18.263471 53.2780552,18.4396177 C53.2780552,18.6480413 53.238838,18.848208 53.1611343,19.0406182 C53.0829435,19.2327782 52.9660226,19.405422 52.8098845,19.5575487 C52.3185733,20.038199 51.7624683,20.3989995 51.1423005,20.6394497 C50.5221327,20.8796498 49.8569016,21 49.1468508,21 C48.3513017,21 47.6061746,20.849875 46.9117133,20.5491245 C46.217252,20.2486242 45.6126737,19.8360306 45.0977346,19.3108432 C44.5827956,18.7861563 44.175034,18.1691424 43.8749371,17.4598017 C43.574353,16.7504609 43.4243045,15.9873254 43.4243045,15.1698946 L43.4243045,7.11568697 Z M54.9895333,15.404515 C54.9895333,14.5623136 55.1476201,13.7661506 55.46355,13.0160258 C55.77948,12.2659011 56.2084335,11.6121066 56.7508976,11.0543922 C57.2928746,10.4969279 57.9269268,10.0558105 58.652567,9.73078986 C59.3779636,9.40601939 60.1503722,9.24338394 60.9695491,9.24338394 L60.9931769,9.24338394 C61.4221303,9.24338394 61.7536498,9.36823792 61.9877351,9.61769567 C62.2218204,9.86740363 62.3389849,10.1854185 62.3389849,10.5717402 C62.3389849,10.7651513 62.3039086,10.9440503 62.2335125,11.1091878 C62.16336,11.2740751 62.067631,11.4151927 61.9468128,11.5317898 C61.825751,11.6486371 61.6834972,11.7412142 61.519808,11.8095211 C61.3558752,11.8778279 61.1802503,11.9121065 60.9931769,11.9121065 L60.9344728,11.9121065 C60.4899299,11.9201132 60.0665789,12.0141915 59.664907,12.1945917 C59.2629914,12.374992 58.9100365,12.6194456 58.6057987,12.9279525 C58.3013172,13.2364594 58.0574885,13.595008 57.8743124,14.0038485 C57.6908928,14.4124388 57.5951638,14.853306 57.5876127,15.3259496 L57.5876127,19.5334536 C57.5876127,19.7178572 57.5542415,19.8900006 57.4882299,20.0503841 C57.4217312,20.2107677 57.3318482,20.3508844 57.2190683,20.4709844 C57.1058012,20.5913347 56.9710986,20.685413 56.8152041,20.7534697 C56.659066,20.8217766 56.4951332,20.8558049 56.3236493,20.8558049 C56.144127,20.8558049 55.9743481,20.8217766 55.8145563,20.7534697 C55.6545208,20.685413 55.5122671,20.5910845 55.3875515,20.4707342 C55.2625923,20.3506342 55.1651582,20.2100171 55.0947621,20.0496335 C55.0246096,19.8889997 54.9895333,19.7166062 54.9895333,19.5322026 L54.9895333,15.404515 Z M64.0326326,10.5778203 C64.0326326,10.3934167 64.0657601,10.2212733 64.1320153,10.0608898 C64.1982705,9.9005062 64.2901021,9.76038951 64.407023,9.64003928 C64.5241874,9.51993926 64.6605951,9.42586091 64.8167332,9.35755403 C64.9726277,9.28974756 65.1404579,9.25546901 65.3199802,9.25546901 C65.4992588,9.25546901 65.6690377,9.28974756 65.8290731,9.35755403 C65.988865,9.42586091 66.127465,9.51993926 66.2443859,9.64003928 C66.3615503,9.76038951 66.455087,9.9005062 66.5252395,10.0608898 C66.5956357,10.2212733 66.6307119,10.3934167 66.6307119,10.5778203 L66.6307119,15.3380346 C66.6307119,15.7628885 66.7047618,16.1554654 66.8531052,16.5162659 C67.001205,16.8768162 67.2060601,17.1913281 67.467427,17.4598017 C67.7287938,17.7282753 68.0349804,17.9387005 68.3859866,18.0908272 C68.7372364,18.2432041 69.1194216,18.3192675 69.5330292,18.3192675 C69.9385985,18.3192675 70.3054377,18.2412024 70.6330598,18.0848222 C70.9606818,17.9286922 71.2415355,17.7165155 71.4756209,17.4477917 C71.7097062,17.1793181 71.8889849,16.8628045 72.0139441,16.4982509 C72.1386597,16.1334471 72.2012611,15.7388685 72.2012611,15.3140146 L72.2012611,10.5778203 C72.2012611,10.3934167 72.2363373,10.2212733 72.3064899,10.0608898 C72.3766424,9.9005062 72.4740764,9.76038951 72.5990356,9.64003928 C72.7237512,9.51993926 72.8642999,9.42586091 73.020438,9.35755403 C73.1763325,9.28974756 73.3441627,9.25546901 73.5236849,9.25546901 C73.7029636,9.25546901 73.8707938,9.28974756 74.0266883,9.35755403 C74.1828264,9.42586091 74.317529,9.51993926 74.4305525,9.64003928 C74.543576,9.76038951 74.6334589,9.9005062 74.6997141,10.0608898 C74.7659693,10.2212733 74.7993404,10.3934167 74.7993404,10.5778203 L74.7993404,15.3140146 C74.7993404,16.0994187 74.6663429,16.8347812 74.4013223,17.5198517 C74.136058,18.2051724 73.7694624,18.806173 73.3012917,19.3231035 C72.833121,19.8397838 72.2772596,20.2468728 71.633464,20.5431195 C70.989912,20.8398666 70.2896047,20.98799 69.5330292,20.98799 C68.7681717,20.98799 68.0525185,20.8398666 67.3855824,20.5431195 C66.7184026,20.2468728 66.1350161,19.8397838 65.6359101,19.3231035 C65.1365605,18.806173 64.744632,18.2051724 64.4598809,17.5198517 C64.1748863,16.8347812 64.0326326,16.0994187 64.0326326,15.3140146 L64.0326326,10.5778203 Z M79.4099692,16.3357405 C79.5113006,16.6404943 79.6559902,16.9207277 79.8430636,17.1774415 C80.0303806,17.4339051 80.2469278,17.6543387 80.4927052,17.8384921 C80.7384826,18.0228956 81.0115416,18.1670157 81.3118821,18.2713525 C81.611979,18.3754392 81.9262039,18.4274826 82.253826,18.4274826 C82.6050758,18.4274826 82.8934806,18.3974576 83.1200148,18.3374076 C83.3460618,18.2771073 83.5606604,18.1832792 83.7635668,18.0549223 C84.0444205,17.8865321 84.2977491,17.8024621 84.5242833,17.8024621 C84.703562,17.8024621 84.8713921,17.8404937 85.0275302,17.9165571 C85.1834247,17.9928706 85.3181273,18.0952059 85.4311508,18.2230623 C85.5441744,18.3514192 85.6340573,18.4995426 85.7003125,18.6679328 C85.7665676,18.8363231 85.7999388,19.0087166 85.7999388,19.1848633 C85.7999388,19.4573403 85.7139532,19.7057972 85.5424693,19.9299839 C85.3707417,20.1544208 85.1288617,20.3448294 84.8168291,20.5012096 C84.5045529,20.6573396 84.1301625,20.7776899 83.6934143,20.8617599 C83.2564225,20.9458299 82.7765597,20.9878649 82.253826,20.9878649 C81.4658279,20.9878649 80.7226496,20.8337365 80.0245345,20.5252296 C79.3261759,20.2167227 78.7155078,19.7978739 78.1930177,19.2689333 C77.6702839,18.7399928 77.258625,18.1209773 76.9582845,17.4118868 C76.657944,16.702546 76.5078955,15.9434138 76.5078955,15.1337395 C76.5078955,14.3163087 76.657944,13.5511715 76.9582845,12.8375772 C77.258625,12.1244834 77.6702839,11.5034662 78.1930177,10.9742755 C78.7155078,10.4453349 79.3261759,10.0267363 80.0245345,9.7182294 C80.7226496,9.40972247 81.4658279,9.2553439 82.253826,9.2553439 C83.0340292,9.2553439 83.7694129,9.4077208 84.4599768,9.7122244 C85.1502972,10.0169782 85.7548755,10.4295718 86.2739555,10.9502554 C86.7925483,11.4714395 87.2059124,12.0864517 87.5142912,12.7955422 C87.8224264,13.504883 87.984167,14.2602621 88,15.0616795 C88,15.4462498 87.8808869,15.7550069 87.6429041,15.9872003 C87.4049214,16.2196439 87.0987349,16.3357405 86.7243445,16.3357405 L79.4099692,16.3357405 Z M85.3317681,14.0998785 C85.2379878,13.7633482 85.0957341,13.4550915 84.9045197,13.1743577 C84.7133054,12.8938741 84.4870147,12.6514222 84.2258915,12.447002 C83.964281,12.2428319 83.6700301,12.08445 83.3421645,11.9721065 C83.0145424,11.8600131 82.6674336,11.8039664 82.3005943,11.8039664 C81.9339986,11.8039664 81.5885949,11.8640164 81.2651138,11.9843667 C80.9411455,12.1044667 80.6505484,12.2666017 80.3930789,12.471022 C80.1356094,12.6754422 79.9151648,12.9178941 79.7319887,13.1983777 C79.5485691,13.4788613 79.4138665,13.7793616 79.3281245,14.0998785 L85.3317681,14.0998785 Z" id="Combined-Shape" fill="#606365"></path>
                    <path d="M17.4974308,16.0497682 L17.4974308,4.08037094 L21,6.07289026 L21,18.0458114 L14.5904037,21.7060896 L11.0912183,19.7098609 L17.4974308,16.0497682 Z M0.00357174828,10.7096754 L3.50275714,8.71715611 L3.50275714,16.0226893 L3.50632889,16.0226893 L14.0074568,22.0039567 L14.0074568,22.0074807 L10.5082714,24 L0,18.0187326 L0.00357174828,10.7096754 Z M10.5082714,0 L10.5118432,0 L16.9197476,3.64395672 L16.9197476,7.63604328 L10.5082714,3.99227202 L10.5082714,3.98874807 L10.5046997,3.98874807 L0.00357174828,9.97335394 L0,9.97335394 L0,5.98479134 L0.00357174828,5.98479134 L10.5082714,0 Z M6.5795363,7.09910355 L8.95982455,5.7496136 L8.95982455,10.7588253 C9.2058992,10.5874498 9.76760362,10.1463988 10.6443738,10.1463988 C11.7672187,10.1463988 12.7236953,10.5362597 13.5136156,11.3152396 C14.302972,12.0944049 14.6981201,13.0380835 14.6981201,14.1459042 C14.6981201,15.2540958 14.302972,16.1992581 13.5136156,16.9821329 C12.7236953,17.7648223 11.7672187,18.1563524 10.6443738,18.1563524 C9.51400949,18.1563524 8.55377316,17.7648223 7.76422881,16.9821329 C6.97449646,16.1992581 6.5795363,15.2540958 6.5795363,14.1459042 L6.5795363,7.09910355 Z M9.4542297,15.3201236 C9.78377048,15.645626 10.1806105,15.8080989 10.6443738,15.8080989 C11.1008057,15.8080989 11.493698,15.645626 11.8236147,15.3201236 C12.1531555,14.9949923 12.3180199,14.6036476 12.3180199,14.1459042 C12.3180199,13.6885317 12.1531555,13.2988563 11.8236147,12.9772488 C11.493698,12.655456 11.1008057,12.4948377 10.6443738,12.4948377 C10.1806105,12.4948377 9.78377048,12.655456 9.4542297,12.9772488 C9.12431295,13.2988563 8.95982455,13.6885317 8.95982455,14.1459042 C8.95982455,14.6036476 9.12431295,14.9949923 9.4542297,15.3201236 Z" id="Combined-Shape" fill="url(#linearGradient-1)"></path>
                </g>
            </g>
        </g>
    </g>
</svg>
