<svg height="29" viewBox="0 0 81 29" width="81" xmlns="http://www.w3.org/2000/svg"><g fill="#4155a4"><path d="m14.4064286 28.884c-7.95645083 0-14.4064286-6.4659036-14.4064286-14.442 0-7.97609636 6.44997777-14.442 14.4064286-14.442 7.9564508 0 14.4064285 6.46590364 14.4064285 14.442-.0091096 7.9723107-6.4537541 14.4328679-14.4064285 14.442zm0-27.55828571c-7.22790835 0-13.08728574 5.87384499-13.08728574 13.11960001 0 7.245755 5.85937739 13.1196 13.08728574 13.1196 7.2279083 0 13.0872857-5.873845 13.0872857-13.1196-.0091076-7.24196984-5.8631533-13.11046994-13.0872857-13.11960001z"/><path d="m8.62071429 17.1315429c-3.78173901.0009456-7.10574989-2.5117977-8.14481498-6.1569683-1.03906509-3.64517056.45868872-7.53916593 3.66994215-9.54144644s7.35758714-1.62748617 10.15975034.91835755c.1952361.15297837.2887617.40254686.2422944.64655115-.0464672.24400428-.2251266.44148266-.4628486.51160253-.237722.07011986-.4945996.00110998-.6654866-.17878225-2.858025-2.59473309-7.25389858-2.44932976-9.93508429.3286251-2.6811857 2.77795486-2.6811857 7.18708066 0 9.96503556 2.68118571 2.7779548 7.07705929 2.9233582 9.93508429.3286251.170887-.1798923.4277646-.2489021.6654866-.1787823.237722.0701199.4163814.2675983.4628486.5116025.0464673.2440043-.0470583.4935728-.2422944.6465512-1.5557928 1.4169177-3.5829105 2.2010489-5.68487751 2.1990286z" transform="translate(5.785714 5.8)"/><path d="m21.7278367 9.802c-.6828944 0-1.2364898.5549622-1.2364898 1.2395429 0 .6845806.5535954 1.2395428 1.2364898 1.2395428.6828945 0 1.2364898-.5549622 1.2364898-1.2395428-.0009106-.6842022-.5539729-1.23863002-1.2364898-1.2395429zm.5504694 1.2395429c.0006685.2241642-.1336062.4265978-.3400696.5126916-.2064635.0860938-.4443415.0388453-.6024599-.1196635-.1581183-.1585087-.2052504-.3969742-.1193687-.6039474.0858818-.2069732.2878167-.3415795.5114288-.3409093.3036391.00091.5495617.2474398.5504694.5518286z"/><g transform="translate(34.54898 4.64)"><path d="m4.7492449 7.24337143c-.35857212.49073442-.93770128.76982546-1.54395919.74405714-1.27781632 0-2.17046938-.94622857-2.17046938-2.29845714s.89761224-2.31171429 2.18204081-2.31171429c.58064185-.00844876 1.12710364.27447296 1.45634694.754l.01818368.02817143.7075102-.51371428-.01818367-.02485715c-.4562449-.61811428-1.31087756-1.01582857-2.17542858-1.01582857-1.83820408 0-3.12263265 1.26605714-3.12263265 3.07897143s1.28442857 3.07897143 3.12263265 3.07897143c.8589389.03106004 1.68245294-.34457938 2.22336735-1.01417143l.0214898-.02651429-.68271429-.50874285z"/><path d="m9.84232653 2.61c-1.68116326 0-2.94906122 1.32571429-2.94906122 3.07897143s1.29930612 3.07897143 3.02510204 3.07897143c.98656845.01686154 1.92076645-.44398763 2.50934695-1.23788572l.0181837-.02485714-.6810613-.53691429-.0198367.02982858c-.3978627.62420513-1.0877278.99971743-1.82663265.99428571-1.13303447-.00152048-2.0577195-.90936076-2.08285715-2.04491429h4.7938776v-.02817142c.0132244-.14914286.0132244-.28834286.0132244-.39937143 0-1.76982857-1.0992857-2.90994286-2.80028567-2.90994286zm-1.99359184 2.60171429c.09592279-1.03401088.95770383-1.82700189 1.99359184-1.83445715 1.09928567 0 1.81836737.70262857 1.88283677 1.83445715z"/><path d="m15.039551.152457h1v8.468h-1z"/><path d="m20.6136735 5.21171429c-.9918368-.20548572-1.3588164-.46565715-1.3588164-.95948572 0-.64462857.6430409-.87497143 1.1918572-.87497143.5780136-.0166499 1.1164568.29325521 1.3935306.80205715l.0181837.03314285.6942857-.522-.0132245-.02485714c-.3570612-.63137143-1.1835918-1.0556-2.0547551-1.0556-.9670408 0-2.0960816.44908571-2.0960816 1.7168 0 1.19314286 1.135653 1.4616 1.6811632 1.59085714 1.1141633.26348572 1.6811633.49714286 1.6811633 1.08542857 0 .85674286-.8265306.98434286-1.322449.98434286-.6451768-.00475979-1.2429104-.34064238-1.5836326-.88988571l-.0165307-.02982857-.7190816.53525714.0165306.02485714c.4959184.72417143 1.3373266 1.14011429 2.3142857 1.14011429 1.0662245 0 2.2068368-.47891429 2.2068368-1.82285715 0-.90645714-.6298164-1.4384-2.0332653-1.73337142z"/><path d="m24.90998 2.757486h1v5.861314h-1z"/><path d="m32.6595306 5.99885714c0 1.38371429-.4744286 2.00182857-1.539 2.00182857h-.0148775c-1.0645715 0-1.539-.61811428-1.539-2.00182857v-3.24137143h-.9025715v3.58771429c0 1.4732.9620817 2.42274286 2.4514898 2.42274286 1.4894082 0 2.4415715-.94954286 2.4415715-2.42274286v-3.58771429h-.9025715z"/><path d="m38.2650612 5.21171429c-.9918367-.20548572-1.3604694-.46565715-1.3604694-.95948572 0-.64462857.6430409-.87497143 1.1935102-.87497143.5779172-.01626544 1.1161743.29353255 1.3935307.80205715l.0165306.03314285.6942857-.522-.0132245-.02485714c-.3570612-.63137143-1.1819388-1.0556-2.0547551-1.0556-.9670408 0-2.0960816.44908571-2.0960816 1.7168 0 1.19314286 1.135653 1.4616 1.6811632 1.59085714 1.1158163.26348572 1.6811633.49714286 1.6811633 1.08542857 0 .85674286-.8265306.98434286-1.322449.98434286-.6440808-.00558015-1.2404536-.34139913-1.5803265-.88988571l-.0181837-.02982857-.7190816.53525714.0165306.02485714c.4959183.72417143 1.3373265 1.14011429 2.3142857 1.14011429 1.0678775 0 2.2068367-.47891429 2.2068367-1.82285715-.0066122-.90645714-.6248571-1.4384-2.0332653-1.73337142z"/></g><path d="m38.7014694 20.7921714c0-1.4102285-.484347-2.0382857-1.5671021-2.0382857h-.0165306c-1.0827551 0-1.567102.6280572-1.567102 2.0382857v3.2993715h-.919102v-3.6457143c0-1.4914286.9802653-2.4674857 2.4977755-2.4674857s2.4911632.9694285 2.4911632 2.4674857v3.6457143h-.919102z"/><path d="m42.010898 21.1981714c.0231295.2864105.0952643.5666929.2132449.8285715.1111056.2516376.268716.4799215.4645102.6728.1907598.1886138.4150226.3398028.6612245.4457714.2572636.111252.5347863.1676836.8149591.1657143.4040882.0105729.802572-.096489 1.1472245-.3082286.2951377-.1775675.5461212-.420104.7339592-.7092571l.6397347.5269714c-.3041763.4066264-.7009176.734462-1.1571429.9561714-.4274269.1933846-.8915389.2917502-1.3604693.2883429-.4147533.0044339-.8261917-.0744508-1.2100409-.232-.3609692-.1478775-.6878473-.3684023-.9604285-.6479429-.2717302-.2833734-.4866613-.616411-.6331225-.9810286-.1568231-.3912682-.2354544-.809606-.2314286-1.2312571-.0044129-.4216033.0719053-.8401401.2248164-1.2329143.1439052-.3642799.3572727-.6969419.6281632-.9793714.2666539-.2774539.5866217-.4978692.9405919-.6479429.3683288-.157151.7651282-.2361426 1.1654081-.232.4097431-.0068806.8161853.0744955 1.1918572.2386286.3359095.1470898.6372212.3633278.8843877.6346857.2420032.2702122.4274967.5863298.5455102.9296572.1272516.3659019.190991.7509642.188449 1.1384571v.3761714zm3.9888367-.6777714c.0237758-.5028753-.1549011-.9942559-.4959184-1.3638286-.3306122-.348-.7989796-.522-1.405102-.522-.267476.0021614-.5317532.0585294-.7769388.1657143-.2439129.0992073-.467924.2418056-.6612245.4209143-.1858008.1722477-.3392178.3765604-.4529388.6032-.1094783.218502-.1661077.4597714-.1653145.7042857z"/><path d="m51.9441429 18.7853714h-1.6910817v3.4700572c-.0052514.1799911.0159135.3597789.0628164.5336.0307678.1201268.0910016.2306383.1752244.3214857.0748294.0748155.1676302.1290354.269449.1574286.112766.0295621.2289357.0440495.3454898.0430857.1482392-.0003552.295696-.0215522.4380612-.0629715.1438767-.0400351.2829966-.0955982.4149184-.1657142l.0363674.7656c-.3522112.1510803-.7328523.2240047-1.1158164.2137714-.1671406-.0007465-.3336054-.0213278-.4959183-.0613143-.1724779-.0438069-.332924-.1259271-.4694694-.2402857-.1517147-.1301002-.2716104-.2933796-.350449-.4772572-.1019201-.2511434-.149258-.5211836-.1388571-.7921142v-3.7053715h-1.241449v-.754h1.243102v-1.6571428h.8265306v1.6571428h1.6927347z"/><path d="m53.8253265 18.0313714 1.3538572 4.7775429h.0330612l1.567102-4.7775429h.8529796l1.5671021 4.7775429h.026449l1.3538571-4.7775429h.9786122l-1.8563877 5.8828572h-.9273674l-1.5555306-4.8272572h-.0231428l-1.5555306 4.8272572h-.9290205l-1.8563877-5.8828572z"/><path d="m69.0632449 20.9728c.0048508.4217239-.0738106.8402221-.2314286 1.2312571-.2961903.7449379-.8859162 1.3343212-1.6299183 1.6289715-.8079781.3094006-1.7013689.3094006-2.509347 0-.7431253-.2959903-1.332394-.8849167-1.6299183-1.6289715-.3086133-.792259-.3086133-1.6719123 0-2.4641714.1485848-.3661663.3682906-.6990737.6463469-.9793714.2831169-.2814745.6206367-.5019681.9918367-.6479429.8079781-.3094006 1.7013689-.3094006 2.509347 0 .7434569.2946075 1.3330167.8832255 1.6299183 1.6273143.154628.3922364.2304665.8112227.2231633 1.2329143zm-.9025714 0c.0026337-.3128121-.0499733-.6236234-.1553878-.9180571-.0993786-.2741231-.2509656-.5262663-.4463265-.7424-.1953694-.2119715-.4322954-.3812193-.6959388-.4971429-.5904776-.2430039-1.2526856-.2430039-1.8431633 0-.2628861.1147215-.4984241.2841853-.6909795.4971429-.1912841.216408-.3399268.4671942-.4380613.7390857-.2093673.5940443-.2093673 1.2420699 0 1.8361143.0977588.2730649.2464192.5250057.4380613.7424.1925554.2129575.4280934.3824213.6909795.4971428.5904777.2430039 1.2526857.2430039 1.8431633 0 .2636434-.1159236.5005694-.2851714.6959388-.4971428.1953609-.2161338.3469479-.4682769.4463265-.7424.1050305-.2933874.1576318-.6030427.1553878-.9147429z"/><path d="m71.1593265 19.8658286c0-.2601715 0-.5236572-.0198367-.7921143-.0198367-.2684572-.0231429-.6148-.0314082-1.0423429h.8149592v1.0937143h.026449c.0608749-.1641902.1449355-.3187748.2496122-.4590286.1123948-.1500435.2454077-.2833849.3950817-.3960571.1640219-.1226459.3464941-.2183027.540551-.2833714.2244085-.0742121.4596687-.1100644.6959388-.1060572.2068656-.0033215.4132108.0217686.6132857.0745715l-.1653061.8169714c-.1544613-.0483128-.3160652-.0696143-.4777347-.0629714-.2825083-.0077123-.5625161.0549184-.8149592.1822857-.2173824.1154-.4091486.2738146-.5636939.4656571-.1457467.1817869-.2577295.388344-.3306122.6098286-.0687642.2023282-.1050324.4143219-.107449.6280571v3.3142857h-.8265306z"/><path d="m76.5631837 20.6828 2.7721836-2.6514286h1.241449l-2.9226122 2.6829143 3.2366939 3.1933143h-1.2794694l-3.0482449-3.0922286v3.0922286h-.8265306v-9.4904571h.8265306z"/></g></svg>