<svg xmlns="http://www.w3.org/2000/svg" width="283" height="89" viewBox="0 0 283 89">
    <g fill="none" fill-rule="nonzero">
        <path fill="#3CA9E5" d="M21.855 10.334l38.476 22.21v22.653L1.5 21.219l18.876-10.885a1.51 1.51 0 0 1 1.51 0"/>
        <path fill="#2853C3" d="M60.331 9.893l-19.6 11.326 19.6 11.326z"/>
        <path fill="#1A4199" d="M60.331 9.893L79.208 20.78c.471.272.76.777.755 1.321v44.422L60.331 55.197V9.893z"/>
        <path fill="#2853C3" d="M79.963 66.522L61.087 77.408a1.542 1.542 0 0 1-1.51 0L21.1 55.197V32.513l58.863 34.01z"/>
        <path fill="#60BEFF" d="M1.5 21.22v44.422a1.51 1.51 0 0 0 .755 1.32l18.876 10.886V32.513L1.5 21.22z"/>
        <path fill="#3CA9E5" d="M21.131 77.848l19.6-11.326-19.6-11.325z"/>
        <path fill="#2853C3" d="M193.41 43.934c-.876-10.287-9.434-18.218-19.757-18.31h-.944c-2.385.087-4.733.62-6.921 1.573l-.472.188h-.22a19.789 19.789 0 0 0-11.484 18.248v.377c.549 10.964 9.536 19.607 20.513 19.726h11.388c.609 0 1.102-.493 1.102-1.101V58.31c0-.608-.493-1.1-1.102-1.1h-11.86a11.735 11.735 0 0 1-10.697-8.15h29.101a1.384 1.384 0 0 0 1.353-1.415v-3.555a.692.692 0 0 0 0-.22m-9.438-2.108h-20.984a11.42 11.42 0 0 1 5.82-6.481l.44-.22a11.169 11.169 0 0 1 14.724 6.764M128.412 25.624a19.474 19.474 0 0 0-10.508 3.555v-2.266a.692.692 0 0 0-.692-.692h-7.393a.692.692 0 0 0-.692.692v37.942c0 .608.493 1.101 1.101 1.101h6.512c.609 0 1.102-.493 1.102-1.1V45.6a11.294 11.294 0 0 1 12.364-11.231 11.515 11.515 0 0 1 10.193 11.577v18.877c0 .608.493 1.1 1.101 1.1h6.607a1.101 1.101 0 0 0 1.1-1.1V45.6a20.04 20.04 0 0 0-20.795-19.977M231.666 25.812a.535.535 0 0 0-.755 0l-13.937 13.969-13.748-13.748a.535.535 0 0 0-.755 0l-5.6 5.6a.535.535 0 0 0 0 .755l13.748 13.748-14.063 13.937a.535.535 0 0 0 0 .755l5.474 5.474c.27.268.706.268.976 0l13.842-13.842 13.749 13.748a.535.535 0 0 0 .755 0l5.6-5.6a.535.535 0 0 0 0-.755l-13.749-13.749 13.937-13.937a.535.535 0 0 0 0-.755l-5.474-5.6zM259.478 25.466a20.512 20.512 0 1 0 20.386 20.513c0-11.28-9.107-20.444-20.386-20.513m0 32.373a11.892 11.892 0 1 1 11.766-11.892c0 6.52-5.248 11.823-11.766 11.892"/>
    </g>
</svg>
