<?xml version="1.0" encoding="UTF-8"?>
<svg width="1440px" height="553px" viewBox="0 0 1440 553" version="1.1" xmlns="http://www.w3.org/2000/svg" xmlns:xlink="http://www.w3.org/1999/xlink">
    <!-- Generator: Sketch 49.3 (51167) - http://www.bohemiancoding.com/sketch -->
    <title>pattern / organic / 17</title>
    <desc>Created with Sketch.</desc>
    <defs></defs>
    <g id="pattern-/-organic-/-17" stroke="none" stroke-width="1" fill="none" fill-rule="evenodd">
        <path d="M635.394219,147.880157 C625.926869,143.6885 616.477902,139.46376 607.11834,135.191037 C585.936598,85.6747668 571.283651,36.7833867 560.081328,1.22265625 L743.071867,1.22265625 L740.215269,5.99634065 L846.855436,187.043895 L1275.07718,163.660018 C1137.7195,127.705357 1070.26058,71.8222091 957.807137,1.22265625 L1440.08963,1.22265625 L1440.08963,472.533561 L1338.73195,290.769607 C1337.47718,288.521004 1335.0971,287.140247 1332.5278,287.172242 L1043.82075,290.729614 C1037.41743,290.807601 1034.46971,298.776196 1039.26971,303.036445 L1323.73444,555.125 L1261.42407,555.125 C1119.13693,459.005946 924.383402,318.728678 777.406805,226.073014 C738.125477,201.30938 685.025726,178.465407 631.236846,154.827575 L635.394219,147.880157 Z" id="Fill-4" fill="#FFF1D0"></path>
        <path d="M607.11834,135.191037 C621.66971,141.833866 636.437178,148.360715 651.153859,154.827575 C704.942739,178.465407 758.04249,201.30938 797.323817,226.073014 C944.300415,318.728678 1139.05394,459.005946 1281.34108,555.125 L697.125311,555.125 L681.488465,555.125 C667.213942,546.289558 653.20332,537.557097 639.532282,528.938617 C599.41444,503.647076 541.677012,469.749052 483.515353,434.970184 C425.460249,400.254305 366.982905,364.66158 325.181079,335.874655 C300.455104,318.847657 176.784398,192.739891 68.7913693,97.7916306 C44.30639,76.2654258 20.6310373,56.3429382 -0.906224066,39.6548804 L-0.906224066,1.22265625 L88.666556,1.22265625 L432.791701,1.22265625 C459.620913,36.2454815 474.276846,60.5731924 495.77029,75.3745828 C527.226224,97.0367637 566.319336,116.56732 607.11834,135.191037 Z" id="pinker" fill="#F0A87F"></path>
        <path d="M68.7913693,97.7916306 C176.784398,192.739891 300.455104,318.847657 325.181079,335.874655 C366.982905,364.66158 425.460249,400.254305 483.515353,434.970184 C541.677012,469.749052 599.41444,503.647076 639.532282,528.938617 C653.20332,537.557097 667.213942,546.289558 681.488465,555.125 L411.613942,555.125 L137.474191,555.125 C87.713527,520.24515 41.3915353,487.880856 -0.906224066,458.677004 L-0.906224066,436.441925 L-0.906224066,39.6548804 C20.6310373,56.3429382 44.30639,76.2654258 68.7913693,97.7916306 Z" id="pink" fill="#F6C6A7"></path>
        <path d="M1275.07718,163.660018 C1137.7195,127.705357 1070.26058,71.8222091 957.807137,1.22265625 L737.403485,1.22265625 L846.855436,187.043895 L1275.07718,163.660018" id="blue" fill="#387DA2"></path>
        <path d="M495.77029,75.3745828 C527.226224,97.0367637 566.319336,116.56732 607.11834,135.191037 C585.936598,85.6747668 571.283651,36.7833867 560.081328,1.22265625 L432.791701,1.22265625 C459.620913,36.2454815 474.276846,60.5731924 495.77029,75.3745828" id="dark" fill="#383A3B"></path>
        <path d="M-0.906224066,458.677004 L-0.906224066,555.125 L137.474191,555.125 C87.713527,520.24515 41.3915353,487.880856 -0.906224066,458.677004" id="dark" fill="#383A3B"></path>
        <path d="M1332.5278,287.172242 L1043.82075,290.729614 C1037.41743,290.807601 1034.46971,298.776196 1039.26971,303.036445 L1323.73444,555.125 L1440.08963,555.125 L1440.08963,472.533561 L1338.73195,290.769607 C1337.47718,288.521004 1335.0971,287.140247 1332.5278,287.172242" id="dark" fill="#383A3B"></path>
    </g>
</svg>