<?xml version="1.0" encoding="utf-8"?>
<!-- Generator: Adobe Illustrator 22.0.0, SVG Export Plug-In . SVG Version: 6.00 Build 0)  -->
<svg version="1.1" id="Layer_1" xmlns="http://www.w3.org/2000/svg" xmlns:xlink="http://www.w3.org/1999/xlink" x="0px" y="0px"
	 viewBox="0 0 464.9 617.5" style="enable-background:new 0 0 464.9 617.5;" xml:space="preserve">
<style type="text/css">
	.st0{fill:#18A65B;}
</style>
<g>
	<path class="st0" d="M353.7,364.9c-5.8,8.9-12.9,16.8-21,23.6c0,0,0,0-0.1,0c-8.3,6.9-17.7,12.5-27.8,16.7
		c-0.4,0.2-0.9,0.3-1.4,0.5c-10,4-20.8,6.4-32,7.1v1v32c11.1-0.6,21.8-2.5,32-5.4c8.9-2.6,17.5-6.1,25.5-10.3
		c9.5-5,18.4-11.1,26.5-18c0,0,0,0,0.1,0c8-6.9,15.2-14.7,21.4-23.2l-22.6-23.2L353.7,364.9z"/>
	<path class="st0" d="M187.5,458l-23,23.7c14.7,8.4,30.5,15,47.2,19.5v31.3c-24.7-5.8-48-15.4-69-28.4c-9.1-5.6-17.8-11.8-25.9-18.5
		l21.3-21.9l22.3-22.9c0,0,0,0-0.1,0c-8.3-6.5-16-13.7-23-21.5l-0.1-0.1c-8.3-9.4-15.7-19.7-21.8-30.7
		c-13.5-24.4-21.2-52.4-21.2-82.2c0-31.4,8.6-60.9,23.5-86.2l-22.9-23.5c-20.6,31.5-32.6,69.1-32.6,109.5c0,38.8,11,75,30,105.8
		c6.6,10.7,14.1,20.7,22.5,30l-21.2,21.8l-22.2,22.8l0.1,0.1c7.2,7.7,14.8,14.9,22.9,21.7c0,0,0,0,0.1,0c8.1,6.8,16.6,13.1,25.5,19
		c27.4,18,58.4,31,91.6,37.8v52.3h32v-47.9v-31.9v-30.5V475c-11-1.3-21.7-3.7-32-7.1C203.2,465.3,195.2,461.9,187.5,458z"/>
	<path class="st0" d="M303.5,535.3c-10.5,1.8-21.2,2.9-32,3.2v31.8v47.2h32v-50c42.2-6.3,81.1-22.6,114.3-46.4l-22.5-23
		C368.3,516.6,337.1,529.5,303.5,535.3z"/>
	<path class="st0" d="M420.8,433.8l-22.4-23c-6.5,8.3-13.7,16-21.6,23c0,0,0,0-0.1,0c-8,7-16.6,13.3-25.7,18.8
		c-14.6,8.7-30.6,15.2-47.5,19.2c-10.4,2.4-21.1,4-32,4.4V508c10.9-0.4,21.6-1.6,32-3.7c25.4-5,49.2-14.9,70.2-28.5
		c8.9-5.8,17.4-12.2,25.2-19.3l21.3,21.9l22.2,22.8c0,0,0,0,0.1-0.1c7.8-7.1,15.1-14.7,21.9-22.7l-22.3-22.9L420.8,433.8z"/>
	<path class="st0" d="M211.6,0v47.1c-31.7,6.4-61.4,18.6-87.9,35.4l22.7,23.4c20-11.8,41.9-20.7,65.1-26.1v31.3
		c-15.2,4.1-29.7,9.9-43.2,17.3c-11.1,6-21.6,13.1-31.3,21l-21.2-22l-22.2-22.8l-0.1,0.1c-8,6.8-15.6,14.1-22.8,21.8
		c0,0,0,0-0.1,0.1c-7.2,7.8-13.9,15.9-20.1,24.5C18.8,194.7,0,248.3,0,306.2c0,56.3,17.8,108.5,47.9,151.5l22.6-23.2
		c-24.4-36.8-38.7-80.9-38.7-128.2c0-49,15.2-94.4,41.2-131.9c6-8.7,12.6-17.1,19.8-24.9l21.3,21.8l22.3,22.8c0,0,0,0,0-0.1
		c6.9-7.9,14.6-15.2,22.9-21.7l0.1-0.1c9.9-7.8,20.7-14.5,32.3-20c6.4-3.1,13.1-5.7,20-7.9v28.4v3.9c-11.1,4.5-21.4,10.4-30.9,17.5
		l-0.1,0.1c-8.4,6.3-16.1,13.6-22.9,21.6c0,0,0,0,0,0.1c-6.9,8.2-12.9,17.2-17.9,26.8c-9.7,19-15.3,40.6-15.3,63.4
		c0,21.1,4.7,41.2,13.2,59.2c5.4,11.6,12.4,22.3,20.7,31.9l0.1,0.1c6.9,8,14.6,15.2,23.1,21.4c0,0,0,0,0.1,0
		c8.7,6.4,18.2,11.9,28.3,16.1l1.7-1.8v2.4c10.1,4.1,20.9,7.1,32,8.8v-32.3v-1c-2.9-0.6-5.7-1.3-8.6-2.1c-8.3-2.3-16.1-5.6-23.5-9.8
		c-2.3-1.3-4.7-2.7-6.9-4.2c0,0,0,0-0.1,0c-8.8-5.9-16.6-13.1-23.3-21.3l-0.1-0.1c-8.1-10-14.5-21.5-18.6-34
		c-3.5-10.5-5.4-21.8-5.4-33.5c0-13.5,2.6-26.3,7.1-38.1c4-10.4,9.4-20,16.2-28.5c0,0,0,0,0-0.1c6.6-8.2,14.3-15.5,23-21.5l0.1-0.1
		c2.5-1.7,5.1-3.3,7.8-4.8c8.8-5,18.4-8.7,28.5-11.1c1.2-0.3,2.4-0.6,3.6-0.8v-1v-32.3v-30.7v-32.1V74.3V42.7V0H211.6z"/>
	<path class="st0" d="M271.5,42v31.8v30.4V136v30.4v32v1c10,0.7,19.6,2.7,28.7,5.9c1.1,0.4,2.2,0.8,3.3,1.2
		c11,4.3,21,10.3,29.9,17.8l0.1,0.1l0.6-0.6l22.2-22.9l-0.1-0.1c-9.5-8.3-20-15.3-31.4-20.8c-6.8-3.3-13.9-6-21.3-8.1v-31.5
		c15.4,3.6,30,9.3,43.4,16.8l22.8-23.5c-20.1-12.3-42.4-21.2-66.3-25.9V76.9c32,5.5,61.7,17.5,87.9,34.6
		c10.4,6.8,20.3,14.5,29.5,22.8l-21.2,21.8l-22.2,22.8l0.1,0.1c7.9,7,15.1,14.8,21.5,23.2l22.4-23l21.3-21.9l22.2-22.9
		c-6.9-8-14.2-15.6-21.9-22.8l-0.1-0.1c-9.1-8.4-18.9-16.2-29.1-23.2C381.4,66,343.9,50.7,303.4,44.6V0h-32L271.5,42L271.5,42z"/>
</g>
</svg>
