<?xml version="1.0" encoding="utf-8"?>
<!-- Generator: Adobe Illustrator 22.0.0, SVG Export Plug-In . SVG Version: 6.00 Build 0)  -->
<svg version="1.1" id="Layer_1" xmlns="http://www.w3.org/2000/svg" xmlns:xlink="http://www.w3.org/1999/xlink" x="0px" y="0px"
	 viewBox="0 0 853.2 210.8" style="enable-background:new 0 0 853.2 210.8;" xml:space="preserve">
<style type="text/css">
	.st0{enable-background:new    ;}
	.st1{fill:#231F20;}
	.st2{fill:#18A65B;}
</style>
<g>
	<g class="st0">
		<path class="st1" d="M232.4,47.4l-5.5,6.9c-4.1-4.4-9.9-7.1-15.6-7.1c-11.2,0-20,8.6-20,19.7c0,11,8.8,19.8,20,19.8
			c5.6,0,11.4-2.6,15.6-6.6l5.6,6.2c-5.7,5.6-13.8,9.2-21.7,9.2c-16.4,0-29.1-12.4-29.1-28.5c0-15.9,12.9-28.2,29.4-28.2
			C219.1,38.8,227,42.1,232.4,47.4z"/>
	</g>
	<g class="st0">
		<path class="st1" d="M280.7,73.8c0,12.8-9,21.6-22.2,21.6c-13.2,0-22.2-8.8-22.2-21.6c0-12.9,9-21.6,22.2-21.6
			C271.7,52.2,280.7,60.9,280.7,73.8z M245.5,73.8c0,8.2,5.4,13.8,13,13.8c7.6,0,13-5.6,13-13.8c0-8.2-5.4-13.8-13-13.8
			C250.9,60.1,245.5,65.7,245.5,73.8z"/>
	</g>
	<g class="st0">
		<path class="st1" d="M352.9,68.6V95h-8.2V71.1c0-6.5-3.4-10.4-9-10.4c-6.5,0.2-10.4,5.8-10.4,13.3v21h-8.2V71.1
			c0-6.5-3.3-10.4-8.9-10.4c-6.5,0.2-10.5,5.8-10.5,13.3v21h-8.1V52.5h8.1v8.2c2.6-6,7.5-8.6,13.7-8.6c6.8,0,11.4,3.8,13.2,10.2
			c2.4-7.1,7.5-10.2,14.4-10.2C347.7,52.2,352.9,58.4,352.9,68.6z"/>
	</g>
	<g class="st0">
		<path class="st1" d="M406.6,73.9c0,12.7-8,21.4-20.2,21.4c-6.8,0-11.9-2.7-15-7.7v22.9h-9.2V52.5h9.2v7.4c3.1-5,8.2-7.7,14.9-7.7
			C398.3,52.2,406.6,61,406.6,73.9z M397.3,73.6c0-7.9-5.4-13.8-13-13.8s-13,5.8-13,13.8c0,8.2,5.4,13.9,13,13.9
			S397.3,81.8,397.3,73.6z"/>
		<path class="st1" d="M440.7,89.8c-3,3.8-7.9,5.6-14.1,5.6c-9.2,0-15-5.7-15-13.2c0-7.8,5.8-12.7,16.1-12.8h12.9v-1.3
			c0-5.4-3.4-8.6-10.2-8.6c-4.1,0-8.3,1.4-12.6,4.3l-3.8-6.4c5.9-3.5,10.2-5.4,18.3-5.4c11,0,17.1,5.6,17.2,15l0.1,27.9h-9V89.8z
			 M440.6,80.1v-3.9h-11.5c-6,0-8.8,1.6-8.8,5.7c0,3.8,3.1,6.3,8.2,6.3C435.1,88.2,440.2,84.7,440.6,80.1z"/>
	</g>
	<g class="st0">
		<path class="st1" d="M469,61c2.9-5.8,8-8.8,14.7-8.8V61c-8.6-0.5-14,4.6-14.7,11.8V95h-9.2V52.5h9.2V61z"/>
	</g>
	<g class="st0">
		<path class="st1" d="M528.8,77.3h-32.2c1.4,6.6,6.5,10.6,13.2,10.6c4.6,0,8.9-1.8,12-5l4.9,5.2c-4.2,4.6-10.2,7.2-17.6,7.2
			c-13.1,0-21.8-8.7-21.8-21.5c0-12.9,8.9-21.6,21.5-21.7C523.8,52.2,529.9,61.9,528.8,77.3z M520.8,70.6c-0.3-6.9-4.9-11-11.8-11
			c-6.7,0-11.4,4.2-12.5,11H520.8z"/>
	</g>
	<g class="st0">
		<path class="st2" d="M232.4,121.2l-5.5,6.9c-4.1-4.4-9.9-7.1-15.6-7.1c-11.2,0-20,8.6-20,19.7c0,11,8.8,19.8,20,19.8
			c5.6,0,11.4-2.6,15.6-6.6l5.6,6.2c-5.7,5.6-13.8,9.2-21.7,9.2c-16.4,0-29.1-12.4-29.1-28.5c0-15.9,12.9-28.2,29.4-28.2
			C219.1,112.6,227,115.8,232.4,121.2z"/>
		<path class="st2" d="M250.7,134.7c2.9-5.8,8-8.8,14.7-8.8v8.8c-8.6-0.5-14,4.6-14.7,11.8v22.2h-9.2v-42.6h9.2V134.7z"/>
		<path class="st2" d="M291.9,174.6c-2.6,6.7-7.4,10.1-13.8,10.1c-3.8,0-6.9-1.1-9.8-3.6l3.9-7.1c2,1.4,3.6,2.1,5.5,2.1
			c2.8,0,5-1.5,6.5-4.7l1.4-3.2l-17.6-41.9h9.5l12.7,32.2l11.8-32.2h9.2L291.9,174.6z"/>
		<path class="st2" d="M362.4,147.7c0,12.7-8,21.4-20.2,21.4c-6.8,0-11.9-2.7-15-7.7v22.9H318v-58.1h9.2v7.4c3.1-5,8.2-7.7,14.9-7.7
			C354.2,125.9,362.4,134.7,362.4,147.7z M353.1,147.4c0-7.9-5.4-13.8-13-13.8s-13,5.8-13,13.8c0,8.2,5.4,13.9,13,13.9
			S353.1,155.5,353.1,147.4z"/>
		<path class="st2" d="M396.1,166.1c-3.4,2-6.9,3.1-10.5,3.1c-6.4,0-11.9-3.7-11.9-12.4v-22.1h-6v-6.9h6v-11.7h9.1v11.7h12.6v6.9
			h-12.6v20.4c0,4.4,1.7,5.8,4.6,5.8c1.9,0,3.9-0.6,6.4-1.8L396.1,166.1z"/>
	</g>
	<g class="st0">
		<path class="st2" d="M442.9,147.5c0,12.8-9,21.6-22.2,21.6c-13.2,0-22.2-8.8-22.2-21.6c0-12.9,9-21.6,22.2-21.6
			C433.9,125.9,442.9,134.6,442.9,147.5z M407.7,147.6c0,8.2,5.4,13.8,13,13.8c7.6,0,13-5.6,13-13.8c0-8.2-5.4-13.8-13-13.8
			C413.1,133.8,407.7,139.4,407.7,147.6z"/>
	</g>
	<g class="st0">
		<path class="st1" d="M474.2,112.8c11.6,0,18.8,5.3,18.8,14c0,6.3-3.8,11-9.8,12.5c7.5,1.3,12,6.6,12,14.2
			c0,9.6-7.8,15.4-20.4,15.4h-24.9v-56H474.2z M459.3,136h14.4c6,0,9.6-2.8,9.6-7.5c0-4.7-3.6-7.3-9.6-7.3h-14.4V136z M459.3,160.4
			h14.4c7.4,0,11.8-2.9,11.8-8.2c0-5-4.4-7.9-11.8-7.9h-14.4V160.4z"/>
	</g>
	<g class="st0">
		<path class="st1" d="M531.3,163.6c-3,3.8-7.9,5.6-14.1,5.6c-9.2,0-15-5.7-15-13.2c0-7.8,5.8-12.7,16.1-12.8h12.9v-1.3
			c0-5.4-3.4-8.6-10.2-8.6c-4.1,0-8.3,1.4-12.6,4.3l-3.8-6.4c5.9-3.5,10.2-5.4,18.3-5.4c11,0,17.1,5.6,17.2,15l0.1,27.9h-9V163.6z
			 M531.2,153.8v-3.9h-11.5c-6,0-8.8,1.6-8.8,5.7c0,3.8,3.1,6.3,8.2,6.3C525.7,161.9,530.7,158.5,531.2,153.8z"/>
	</g>
	<g class="st0">
		<path class="st1" d="M586.9,142.3v26.5h-8.6v-23.9c0-6.4-3.6-10.3-9.5-10.3c-6.5,0.1-10.6,5-11.2,11.6v22.6H549v-42.6h8.6v8.2
			c2.8-5.9,7.9-8.5,14.6-8.5C581.3,125.9,586.9,132.2,586.9,142.3z"/>
	</g>
	<g class="st0">
		<path class="st1" d="M605.4,156.9v11.9h-9.2v-59.4h9.2v35.8l18.8-19h10.6L619,142.7l17,26.1h-10.9l-12.5-19.5L605.4,156.9z"/>
		<path class="st1" d="M670.3,130.2l-3.4,6.8c-3.8-2.3-8.5-3.8-12.2-3.8c-3.6,0-6.2,1.2-6.2,4.2c0,7.8,22.6,3.6,22.6,19
			c0,8.7-7.8,12.6-16.3,12.6c-6.2,0-12.9-2.1-17.1-5.9l3.3-6.6c3.7,3.3,9.6,5.3,14.2,5.3c3.9,0,7-1.4,7-4.6
			c0-8.7-22.4-3.8-22.3-19.2c0-8.6,7.5-12.3,15.7-12.3C660.8,125.8,666.4,127.4,670.3,130.2z"/>
	</g>
	<g class="st0">
		<path class="st1" d="M686,165.3c0,2.4-1.7,4.2-3.8,4.2c-2.2,0-3.9-1.8-3.9-4.2c0-2.4,1.7-4.2,3.9-4.2
			C684.4,161.1,686,162.9,686,165.3z"/>
		<path class="st1" d="M730.6,132.7l-3.4,4.4c-3.2-3-7.4-4.9-12.6-4.9c-8.7,0-15,6.3-15,15.5s6.2,15.6,15,15.6
			c5.5,0,10.1-1.9,13-5.4l3.6,3.8c-3.8,4.6-9.6,7.3-16.9,7.3c-12.2,0-20.9-8.7-20.9-21.3c0-12.6,8.7-21.3,20.9-21.3
			C721.2,126.4,726.8,128.7,730.6,132.7z"/>
		<path class="st1" d="M779.1,147.7c0,12.6-8.9,21.4-21.4,21.4c-12.5,0-21.4-8.7-21.4-21.4c0-12.6,8.9-21.2,21.4-21.2
			C770.2,126.5,779.1,135.1,779.1,147.7z M742.6,147.8c0,9.3,6.3,15.7,15.1,15.7s15.1-6.4,15.1-15.7c0-9.2-6.3-15.6-15.1-15.6
			S742.6,138.6,742.6,147.8z"/>
	</g>
	<g class="st0">
		<path class="st1" d="M853.2,142.8v26h-5.6v-24.3c0-7.5-3.9-11.9-10.4-11.9c-7.8,0.2-12.2,6.5-12.2,15.5v20.7h-5.6v-24.3
			c0-7.5-3.8-11.9-10.4-11.9c-7.7,0.2-12.3,6.5-12.3,15.5v20.7h-5.5v-42.2h5.5v9.5c2.5-6.6,7.5-9.7,14.3-9.8c7,0,11.9,4.1,13.5,11
			c2.3-7.4,7.6-11,14.8-11C848,126.4,853.2,132.6,853.2,142.8z"/>
	</g>
	<g>
		<path class="st2" d="M120.9,124.5c-2,3-4.4,5.7-7.2,8l0,0c-2.8,2.4-6,4.3-9.5,5.7c-0.2,0.1-0.3,0.1-0.5,0.2
			c-3.4,1.3-7.1,2.2-10.9,2.4v0.3V152c3.8-0.2,7.4-0.8,10.9-1.9c3-0.9,6-2.1,8.7-3.5c3.2-1.7,6.3-3.8,9-6.1l0,0
			c2.7-2.4,5.2-5,7.3-7.9l-7.7-7.9L120.9,124.5z"/>
		<path class="st2" d="M64.1,156.3l-7.9,8.1c5,2.9,10.4,5.1,16.1,6.7v10.7c-8.4-2-16.4-5.3-23.6-9.7c-3.1-1.9-6.1-4-8.9-6.3l7.3-7.5
			l7.6-7.8l0,0c-2.8-2.2-5.5-4.7-7.9-7.3l0,0c-2.8-3.2-5.3-6.7-7.4-10.5c-4.6-8.3-7.2-17.9-7.2-28.1c0-10.7,2.9-20.8,8-29.4l-7.8-8
			c-7,10.8-11.1,23.6-11.1,37.4c0,13.2,3.8,25.6,10.3,36.1c2.3,3.6,4.8,7.1,7.7,10.2l-7.2,7.4l-7.6,7.8l0,0c2.5,2.6,5.1,5.1,7.8,7.4
			l0,0c2.8,2.3,5.7,4.5,8.7,6.5c9.4,6.1,19.9,10.6,31.3,12.9v17.9h10.9v-16.4v-10.9v-10.4v-10.9c-3.8-0.5-7.4-1.3-10.9-2.4
			C69.5,158.8,66.7,157.7,64.1,156.3z"/>
		<path class="st2" d="M103.7,182.7c-3.6,0.6-7.2,1-10.9,1.1v10.9v16.1h10.9v-17.1c14.4-2.1,27.7-7.7,39-15.8L135,170
			C125.8,176.3,115.2,180.7,103.7,182.7z"/>
		<path class="st2" d="M143.8,148.1l-7.6-7.8c-2.2,2.8-4.7,5.5-7.4,7.8l0,0c-2.7,2.4-5.7,4.5-8.8,6.4c-5,3-10.4,5.2-16.2,6.6
			c-3.5,0.8-7.2,1.4-10.9,1.5v10.9c3.7-0.1,7.4-0.5,10.9-1.3c8.7-1.7,16.8-5.1,24-9.7c3-2,5.9-4.2,8.6-6.6l7.3,7.4l7.6,7.8l0,0
			c2.7-2.4,5.1-5,7.5-7.7l-7.6-7.8L143.8,148.1z"/>
		<path class="st2" d="M72.3,0v16.1c-10.8,2.2-21,6.4-30,12.1l7.8,8c6.8-4,14.3-7.1,22.2-8.9v10.6c-5.2,1.4-10.1,3.4-14.8,5.9
			c-3.8,2.1-7.4,4.5-10.7,7.2l-7.3-7.5l-7.6-7.8l0,0c-2.7,2.3-5.3,4.8-7.8,7.4l0,0c-2.5,2.6-4.7,5.4-6.9,8.4
			C6.4,66.4,0,84.7,0,104.4c0,19.2,6.1,37.1,16.4,51.7l7.7-7.9c-8.3-12.6-13.2-27.6-13.2-43.8c0-16.7,5.2-32.2,14.1-45
			c2.1-3,4.3-5.8,6.8-8.5l7.3,7.5l7.6,7.8l0,0c2.4-2.7,5-5.2,7.8-7.4l0,0c3.4-2.7,7.1-5,11-6.8c2.2-1,4.5-1.9,6.8-2.7V59v1.3
			c-3.8,1.5-7.3,3.5-10.5,6l0,0c-2.9,2.2-5.5,4.6-7.8,7.4l0,0c-2.4,2.8-4.4,5.9-6.1,9.2c-3.3,6.5-5.2,13.9-5.2,21.6
			c0,7.2,1.6,14.1,4.5,20.2c1.9,4,4.2,7.6,7.1,10.9l0,0c2.3,2.7,5,5.2,7.9,7.3l0,0c3,2.2,6.2,4,9.7,5.5l0.6-0.6v0.8
			c3.5,1.4,7.1,2.4,10.9,3v-11v-0.3c-1-0.2-2-0.4-2.9-0.7c-2.8-0.8-5.5-1.9-8-3.3c-0.8-0.5-1.6-0.9-2.4-1.4l0,0c-3-2-5.7-4.5-8-7.3
			l0,0c-2.8-3.4-4.9-7.3-6.3-11.6c-1.2-3.6-1.8-7.4-1.8-11.4c0-4.6,0.9-9,2.4-13c1.4-3.5,3.2-6.8,5.5-9.7l0,0
			c2.2-2.8,4.9-5.3,7.9-7.3l0,0c0.9-0.6,1.7-1.1,2.7-1.6c3-1.7,6.3-3,9.7-3.8c0.4-0.1,0.8-0.2,1.2-0.3v-0.3v-11V47.1V35.9V25.5V14.6
			V0H72.3z"/>
		<path class="st2" d="M92.8,14.3v10.9v10.4v10.9v10.4v10.9v0.3c3.4,0.2,6.7,0.9,9.8,2c0.4,0.1,0.8,0.3,1.1,0.4
			c3.7,1.5,7.2,3.5,10.2,6.1l0,0l0.2-0.2l7.6-7.8l0,0c-3.2-2.8-6.8-5.2-10.7-7.1c-2.3-1.1-4.8-2-7.3-2.8V47.9
			c5.2,1.2,10.2,3.2,14.8,5.8l7.8-8c-6.8-4.2-14.5-7.2-22.6-8.9V26.3c10.9,1.9,21.1,6,30,11.8c3.6,2.3,6.9,4.9,10.1,7.8l-7.2,7.4
			l-7.6,7.8l0,0c2.7,2.4,5.1,5.1,7.4,7.9l7.6-7.8l7.3-7.5l7.6-7.8c-2.3-2.7-4.8-5.3-7.5-7.8l0,0c-3.1-2.9-6.4-5.5-9.9-7.9
			c-11-7.6-23.9-12.8-37.7-14.9V0H92.9v14.3H92.8z"/>
	</g>
</g>
</svg>
