<svg xmlns="http://www.w3.org/2000/svg" fill="#FF6868" viewBox="0 0 64 64">
    <path d="M63.32,57H.68a.6.6,0,0,1-.61-.6.6.6,0,0,1,.61-.6H63.32a.6.6,0,0,1,.61.6A.6.6,0,0,1,63.32,57Z"></path>
    <path
        d="M22.42,57A.63.63,0,0,1,22.2,57a26.8,26.8,0,1,1,31.1-8.64.61.61,0,0,1-.85.12.61.61,0,0,1-.11-.85,25.56,25.56,0,1,0-29.69,8.25.59.59,0,0,1,.33.78A.6.6,0,0,1,22.42,57Z"></path>
    <path
        d="M32.63,37.9a4.71,4.71,0,0,1-1.36-.2A3.63,3.63,0,0,1,29.07,36a.6.6,0,0,1,.24-.81.61.61,0,0,1,.82.24,2.39,2.39,0,0,0,1.49,1.16,4.15,4.15,0,0,0,3.12-.41c1.8-1,2.66-2.89,1.92-4.27a2.41,2.41,0,0,0-1.49-1.15,4.15,4.15,0,0,0-3.12.41,5.37,5.37,0,0,1-4,.5,3.6,3.6,0,0,1-2.2-1.74c-1.06-2,0-4.61,2.41-5.89a5.37,5.37,0,0,1,4-.51,3.66,3.66,0,0,1,2.2,1.74.6.6,0,1,1-1.06.57,2.41,2.41,0,0,0-1.49-1.15,4.15,4.15,0,0,0-3.12.41c-1.8,1-2.67,2.88-1.92,4.26a2.43,2.43,0,0,0,1.49,1.16,4.15,4.15,0,0,0,3.12-.41,5.37,5.37,0,0,1,4-.51,3.63,3.63,0,0,1,2.2,1.74c1.06,2,0,4.61-2.41,5.9A5.73,5.73,0,0,1,32.63,37.9Z"></path>
    <path
        d="M36.29,39.62a.6.6,0,0,1-.53-.32l-9-16.76A.6.6,0,1,1,27.81,22l9,16.76a.6.6,0,0,1-.24.82A.62.62,0,0,1,36.29,39.62Z"></path>
</svg>
