<svg xmlns="http://www.w3.org/2000/svg" class="_3Z-fZ _1AwiJ _1L7aF" viewBox="0 0 64 64" fill="#934C86">
    <path
        d="M41.41,64h0a.6.6,0,0,1-.55-.65,51.57,51.57,0,0,1,1.52-8.56c.58-2.08,1.16-4,1.67-5.63,1-3.37,1.85-6,1.85-7.78,0-1.29-1.84-4.84-5.05-9.73a.6.6,0,1,1,1-.67c3.49,5.31,5.25,8.81,5.25,10.4,0,1.93-.79,4.53-1.9,8.13-.51,1.66-1.08,3.54-1.66,5.6A51.23,51.23,0,0,0,42,63.44.61.61,0,0,1,41.41,64Z"></path>
    <path
        d="M13.37,39.61a1.82,1.82,0,0,1-1.73-1.31L5,15.24a1.82,1.82,0,0,1,.15-1.37A1.87,1.87,0,0,1,6.19,13L35,4.69a.59.59,0,0,1,.74.41.61.61,0,0,1-.41.75L6.53,14.16a.61.61,0,0,0-.36.29.57.57,0,0,0,0,.46L12.8,38a.59.59,0,0,0,.28.36.66.66,0,0,0,.46.05l8.88-2.57A.6.6,0,1,1,22.75,37l-8.87,2.57A2.24,2.24,0,0,1,13.37,39.61Z"></path>
    <path
        d="M29.66,34.94a.61.61,0,0,1-.58-.43.62.62,0,0,1,.42-.75l28-8.09a.6.6,0,0,0,.41-.75l-6.67-23a.62.62,0,0,0-.75-.42l-6.92,2A.61.61,0,0,1,42.79,3a.6.6,0,0,1,.41-.74l6.93-2a1.79,1.79,0,0,1,2.23,1.23L59,24.59a1.81,1.81,0,0,1-1.23,2.24l-28,8.09A.5.5,0,0,1,29.66,34.94Z"></path>
    <path
        d="M26.84,64.09a.62.62,0,0,1-.59-.47c-.5-2.23-1.41-5-2.29-7.63a48.83,48.83,0,0,1-2.22-7.85,42,42,0,0,1,.12-7C22,40,22,38.8,22,37.94c0-1.74-.18-3.68-.34-5.55-.09-1.12-.19-2.24-.25-3.32-.14-2.4.88-3.92,2.82-4.18a3.39,3.39,0,0,1,2.75.54,4.55,4.55,0,0,1,1.85,3.11c.07.55,1.75,7.7,2.06,8.41a50.43,50.43,0,0,0,2.62,4.76.59.59,0,0,1-.14.84.61.61,0,0,1-.84-.14,51.9,51.9,0,0,1-2.75-5c-.39-.91-2.07-8.17-2.15-8.74a3.29,3.29,0,0,0-1.34-2.27,2.22,2.22,0,0,0-1.84-.35c-1.35.18-1.94,1.17-1.84,2.93.06,1.07.16,2.17.25,3.28.17,1.9.34,3.86.34,5.66,0,.9-.08,2.07-.17,3.31A39.52,39.52,0,0,0,22.94,48a47.92,47.92,0,0,0,2.16,7.6c.89,2.68,1.82,5.46,2.33,7.74a.6.6,0,0,1-.46.72Z"></path>
    <path
        d="M33.15,26a3.73,3.73,0,0,1-3.8-2.55.6.6,0,0,1,.44-.73.61.61,0,0,1,.73.43c.33,1.27,1.95,1.95,3.62,1.52s2.76-1.81,2.44-3.07S34.63,19.68,33,20.11c-2.31.59-4.6-.48-5.09-2.39s1-3.95,3.31-4.54a4.72,4.72,0,0,1,3.16.22,3.24,3.24,0,0,1,1.92,2.16.6.6,0,1,1-1.16.3,2.12,2.12,0,0,0-1.25-1.36,3.6,3.6,0,0,0-2.37-.16c-1.67.43-2.77,1.81-2.44,3.08s1.95,1.95,3.62,1.52c2.31-.6,4.59.48,5.09,2.39s-1,3.94-3.31,4.54A5.24,5.24,0,0,1,33.15,26Z"></path>
    <path
        d="M34.86,28.12a.61.61,0,0,1-.58-.45L30.19,11.75a.6.6,0,1,1,1.16-.3l4.1,15.92a.6.6,0,0,1-.43.73A.47.47,0,0,1,34.86,28.12Z"></path>
</svg>
