<?xml version="1.0" encoding="UTF-8"?>
<svg width="115px" height="20px" viewBox="0 0 115 20" version="1.1" xmlns="http://www.w3.org/2000/svg" xmlns:xlink="http://www.w3.org/1999/xlink">
    <!-- Generator: Sketch 54.1 (76490) - https://sketchapp.com -->
    <title>logo</title>
    <desc>Created with Sketch.</desc>
    <g id="NEW-HOMEPAGE" stroke="none" stroke-width="1" fill="none" fill-rule="evenodd">
        <g id="logo" fill="#141518" fill-rule="nonzero">
            <path d="M9.604916,0 C10.690223,0 11.61272,0.1537495 12.372434,0.461253 C13.132149,0.7687566 13.873764,1.2028727 14.597302,1.7636145 C14.796275,1.9264105 14.968112,2.0078073 15.11282,2.0078073 C15.474589,2.0078073 15.709735,1.4651621 15.818266,0.3798554 L16.442314,0.3798554 C16.36996,1.6098697 16.333784,3.7985386 16.333784,6.945928 L15.709736,6.945928 C15.54694,5.6073831 15.329881,4.5854013 15.058555,3.879952 C14.787228,3.1745026 14.32598,2.5595047 13.674796,2.0349398 C13.222585,1.6008172 12.698028,1.270708 12.101109,1.0446024 C11.50419,0.8184969 10.880148,0.7054458 10.228964,0.7054458 C8.402031,0.7054458 7.045418,1.5962883 6.159085,3.3780001 C5.272751,5.1597119 4.829591,7.3800352 4.829591,10.0390365 C4.829591,12.6799494 5.290839,14.8867065 6.21335,16.6593741 C7.13586,18.4320417 8.510561,19.3183622 10.337494,19.3183622 C10.952501,19.3183622 11.562977,19.2053111 12.16894,18.9792055 C12.774903,18.7531 13.285894,18.4229908 13.701928,17.9888681 C14.371201,17.4823917 14.836971,16.8493056 15.099254,16.089591 C15.361536,15.3298763 15.565028,14.2174536 15.709736,12.7522896 L16.333784,12.7522896 C16.333784,16.0262981 16.36996,18.3054079 16.442314,19.5896875 L15.818266,19.5896875 C15.764,19.0108573 15.687126,18.5993513 15.587639,18.3551573 C15.488153,18.1109633 15.347969,17.9888681 15.167085,17.9888681 C15.022377,17.9888681 14.832452,18.0612208 14.597302,18.2059284 C13.783322,18.7847586 13.00553,19.2233968 12.263904,19.5218561 C11.522278,19.8203155 10.626913,19.9695429 9.577783,19.9695429 C7.660408,19.9695429 5.98273,19.5806472 4.544699,18.8028441 C3.106668,18.025041 1.989723,16.8990522 1.193831,15.4248439 C0.39794,13.9506357 0,12.1915609 0,10.1475666 C0,8.1578377 0.406984,6.3942409 1.220964,4.8567231 C2.034944,3.3192053 3.169977,2.1253859 4.626097,1.275229 C6.082216,0.4250721 7.741806,0 9.604916,0 Z M25.983098,5.1823134 C28.06327,5.1823134 29.691205,5.7747011 30.866954,6.9594942 C32.042703,8.1442874 32.630569,10.0209353 32.630569,12.5894944 C32.630569,15.1580536 32.042703,17.0301795 30.866954,18.2059284 C29.691205,19.3816773 28.06327,19.9695429 25.983098,19.9695429 C23.921016,19.9695429 22.297602,19.3816773 21.112809,18.2059284 C19.928016,17.0301795 19.335628,15.1580536 19.335628,12.5894944 C19.335628,10.0209353 19.928016,8.1442874 21.112809,6.9594942 C22.297602,5.7747011 23.921016,5.1823134 25.983098,5.1823134 Z M25.983098,5.7249641 C25.205295,5.7249641 24.585775,6.2902195 24.12452,7.4207473 C23.663265,8.551275 23.432641,10.2741735 23.432641,12.5894944 C23.432641,14.9048153 23.663265,16.6231918 24.12452,17.7446754 C24.585775,18.8661589 25.205295,19.4268923 25.983098,19.4268923 C26.77899,19.4268923 27.403032,18.870681 27.855243,17.7582416 C28.307454,16.6458023 28.533556,14.9229038 28.533556,12.5894944 C28.533556,10.2560851 28.302932,8.5286646 27.841677,7.407181 C27.380422,6.2856974 26.760902,5.7249641 25.983098,5.7249641 Z M44.776076,5.1823134 C46.150798,5.1823134 47.145647,5.5350328 47.760655,6.2404822 C48.068158,6.5841626 48.285216,7.0273228 48.411835,7.5699762 C48.538454,8.1126295 48.601763,8.8452005 48.601763,9.7677112 L48.601763,17.0663621 C48.601763,17.8079883 48.732902,18.3189792 48.995185,18.5993501 C49.257467,18.879721 49.705149,19.0199043 50.338245,19.0199043 L50.338245,19.5896875 C48.529401,19.5173337 47.335581,19.4811574 46.756751,19.4811574 C46.214098,19.4811574 45.038366,19.5173337 43.229522,19.5896875 L43.229522,19.0199043 C43.772175,19.0199043 44.152027,18.879721 44.369088,18.5993501 C44.58615,18.3189792 44.694679,17.8079883 44.694679,17.0663621 L44.694679,8.6281449 C44.694679,7.8865187 44.572583,7.3257853 44.328389,6.945928 C44.084195,6.5660706 43.645557,6.3761448 43.012462,6.3761448 C42.270835,6.3761448 41.637749,6.6791217 41.113184,7.2850846 C40.58862,7.8910475 40.326341,8.6371846 40.326341,9.5235184 L40.326341,17.0663621 C40.326341,17.8079883 40.43487,18.3189792 40.651931,18.5993501 C40.868993,18.879721 41.248844,19.0199043 41.791498,19.0199043 L41.791498,19.5896875 C40.127361,19.5173337 39.005894,19.4811574 38.427064,19.4811574 C37.884411,19.4811574 36.636327,19.5173337 34.682775,19.5896875 L34.682775,19.0199043 C35.333959,19.0199043 35.786163,18.879721 36.039401,18.5993501 C36.292639,18.3189792 36.419257,17.8079883 36.419257,17.0663621 L36.419257,8.5196148 C36.419257,7.6875463 36.292639,7.0815925 36.039401,6.7017352 C35.786163,6.3218779 35.333959,6.131952 34.682775,6.131952 L34.682775,5.5621689 C35.261605,5.6164342 35.822338,5.6435665 36.364992,5.6435665 C37.974863,5.6435665 39.2953,5.5169493 40.326341,5.263711 L40.326341,7.7056388 C41.140321,6.0234135 42.623551,5.1823134 44.776076,5.1823134 Z M57.084379,5.1823134 C57.77174,5.1823134 58.404826,5.2682323 58.983656,5.4400725 C59.562486,5.6119127 60.005647,5.8063606 60.31315,6.0234219 C60.494035,6.150041 60.656828,6.2133496 60.801536,6.2133496 C60.964332,6.2133496 61.104515,6.1274308 61.22209,5.9555906 C61.339665,5.7837504 61.41654,5.535038 61.452716,5.209446 L62.0225,5.209446 C61.950146,6.1319566 61.913969,7.7237159 61.913969,9.9847715 L61.344186,9.9847715 C61.18139,8.7909341 60.824149,7.7915625 60.272451,6.9866268 C59.720754,6.181691 58.920352,5.7792291 57.871222,5.7792291 C57.328569,5.7792291 56.880887,5.9329786 56.528162,6.2404822 C56.175437,6.5479857 55.999078,6.9730578 55.999078,7.5157111 C55.999078,8.1307182 56.207092,8.6597973 56.623126,9.1029642 C57.03916,9.5461311 57.690334,10.0842542 58.576668,10.7173498 L59.363512,11.287133 C60.466907,12.1192014 61.280874,12.8608165 61.805439,13.5120005 C62.330004,14.1631845 62.592283,14.9771523 62.592283,15.9539283 C62.592283,16.7498199 62.361659,17.4552586 61.900403,18.0702657 C61.439148,18.6852728 60.819628,19.1555653 60.041825,19.4811574 C59.264022,19.8067494 58.404833,19.9695429 57.464234,19.9695429 C56.46937,19.9695429 55.619226,19.7796171 54.913776,19.3997598 C54.334946,19.1103446 53.918918,18.9204188 53.66568,18.8299766 C53.484796,18.7757113 53.326524,18.8344978 53.190861,19.0063381 C53.055197,19.1781783 52.95119,19.4359347 52.878837,19.7796152 L52.309053,19.7796152 C52.381407,18.7485739 52.417584,16.9397565 52.417584,14.353109 L52.987367,14.353109 C53.349136,17.6813828 54.570087,19.3454947 56.650258,19.3454947 C57.174823,19.3454947 57.622506,19.1872232 57.993319,18.8706754 C58.364132,18.5541276 58.549536,18.070269 58.549536,17.419085 C58.549536,16.9126085 58.436485,16.4604042 58.210379,16.0624584 C57.984273,15.6645126 57.699385,15.3117933 57.355704,15.0042897 C57.012024,14.6967862 56.496511,14.2717141 55.80915,13.7290608 C54.99517,13.0778767 54.37565,12.5533197 53.950572,12.1553739 C53.525493,11.7574282 53.16373,11.2871357 52.86527,10.7444823 C52.566811,10.201829 52.417584,9.5958752 52.417584,8.9266027 C52.417584,7.7689423 52.869788,6.8554895 53.77421,6.1862171 C54.678632,5.5169447 55.782011,5.1823134 57.084379,5.1823134 Z M70.12526,5.5621689 L73.326899,5.5621689 L73.326899,6.1048195 L70.12526,6.1048195 L70.12526,17.0663621 C70.12526,17.6090154 70.220223,17.9933891 70.410152,18.2194947 C70.60008,18.4456002 70.903057,18.5586513 71.319091,18.5586513 C72.096895,18.5586513 72.711892,18.0160061 73.164104,16.9306994 L73.625357,17.1748922 C72.937996,19.038002 71.698956,19.9695429 69.9082,19.9695429 C68.714362,19.9695429 67.809954,19.662044 67.194947,19.0470369 C66.815089,18.6671795 66.557333,18.192365 66.42167,17.622579 C66.286006,17.052793 66.218176,16.2704795 66.218176,15.275615 L66.218176,6.1048195 L63.939043,6.1048195 L63.939043,5.5621689 L66.218176,5.5621689 L66.218176,1.9806748 C67.719516,1.9806748 69.021865,1.691264 70.12526,1.1124338 L70.12526,5.5621689 Z M78.11949,19.7796152 C76.96183,19.7796152 76.09812,19.4811603 75.528334,18.8842417 C74.958548,18.287323 74.673659,17.5004875 74.673659,16.5237115 C74.673659,15.7097315 74.886195,15.035947 75.311273,14.5023379 C75.736352,13.9687288 76.251865,13.5572228 76.857828,13.2678077 C77.463791,12.9783926 78.23706,12.6708937 79.177659,12.3453017 C80.172524,12.0016212 80.900573,11.6896002 81.361828,11.4092293 C81.823083,11.1288584 82.053707,10.7444848 82.053707,10.2560968 L82.053707,8.1397593 C82.053707,7.3800447 81.877348,6.787657 81.524623,6.3625785 C81.171898,5.9375001 80.624731,5.7249641 79.883105,5.7249641 C79.01486,5.7249641 78.354641,5.9420221 77.90243,6.3761448 C78.408907,6.5570293 78.802324,6.8283519 79.082695,7.1901207 C79.363066,7.5518896 79.503249,7.9769617 79.503249,8.4653497 C79.503249,9.0803568 79.295235,9.5687375 78.879201,9.9305064 C78.463167,10.2922753 77.956698,10.473157 77.35978,10.473157 C76.726684,10.473157 76.238303,10.2741871 75.894623,9.8762413 C75.550942,9.4782956 75.379105,8.9808708 75.379105,8.3839521 C75.379105,7.8774757 75.5012,7.4478816 75.745394,7.0951569 C75.989588,6.7424322 76.364918,6.4123231 76.871394,6.1048195 C77.359782,5.8154044 77.961214,5.5893022 78.675707,5.4265062 C79.390201,5.2637102 80.172514,5.1823134 81.022671,5.1823134 C81.909005,5.1823134 82.677752,5.2727543 83.328936,5.4536388 C83.98012,5.6345232 84.522766,5.9420221 84.956888,6.3761448 C85.354834,6.7740906 85.621635,7.2624713 85.757298,7.8413015 C85.892961,8.4201317 85.960792,9.2069673 85.960792,10.2018317 L85.960792,17.5818802 C85.960792,18.0160028 86.00149,18.3235018 86.082888,18.5043862 C86.164286,18.6852707 86.322558,18.7757115 86.557708,18.7757115 C86.829034,18.7757115 87.154621,18.6219621 87.534479,18.3144585 L87.805804,18.7757115 C86.991824,19.444984 85.996974,19.7796152 84.821226,19.7796152 C83.826361,19.7796152 83.129966,19.5806453 82.732021,19.1826995 C82.334075,18.7847537 82.126061,18.2511526 82.107972,17.5818802 C81.20355,19.0470442 79.87407,19.7796152 78.11949,19.7796152 Z M80.208695,18.0431332 C80.914145,18.0431332 81.529143,17.6723257 82.053707,16.9306994 L82.053707,11.3685305 C81.836646,11.7302994 81.375398,12.1282392 80.669948,12.5623619 C79.964499,13.014573 79.430898,13.4667774 79.069129,13.9189885 C78.70736,14.3711996 78.526478,15.0223738 78.526478,15.8725307 C78.526478,16.6141569 78.680228,17.1613242 78.987731,17.5140488 C79.295235,17.8667735 79.702219,18.0431332 80.208695,18.0431332 Z M99.055938,5.1823134 C100.43066,5.1823134 101.425509,5.5350328 102.040516,6.2404822 C102.34802,6.5841626 102.565078,7.0273228 102.691697,7.5699762 C102.818316,8.1126295 102.881625,8.8452005 102.881625,9.7677112 L102.881625,17.0663621 C102.881625,17.8079883 103.012764,18.3189792 103.275047,18.5993501 C103.537329,18.879721 103.985011,19.0199043 104.618107,19.0199043 L104.618107,19.5896875 C102.809262,19.5173337 101.615443,19.4811574 101.036613,19.4811574 C100.493959,19.4811574 99.318228,19.5173337 97.509384,19.5896875 L97.509384,19.0199043 C98.052037,19.0199043 98.431889,18.879721 98.64895,18.5993501 C98.866011,18.3189792 98.97454,17.8079883 98.97454,17.0663621 L98.97454,8.6281449 C98.97454,7.8865187 98.852445,7.3257853 98.608251,6.945928 C98.364057,6.5660706 97.925419,6.3761448 97.292324,6.3761448 C96.550697,6.3761448 95.917611,6.6791217 95.393046,7.2850846 C94.868481,7.8910475 94.606203,8.6371846 94.606203,9.5235184 L94.606203,17.0663621 C94.606203,17.8079883 94.714732,18.3189792 94.931793,18.5993501 C95.148855,18.879721 95.528706,19.0199043 96.07136,19.0199043 L96.07136,19.5896875 C94.407223,19.5173337 93.285756,19.4811574 92.706926,19.4811574 C92.164272,19.4811574 90.916188,19.5173337 88.962636,19.5896875 L88.962636,19.0199043 C89.61382,19.0199043 90.066025,18.879721 90.319263,18.5993501 C90.572501,18.3189792 90.699118,17.8079883 90.699118,17.0663621 L90.699118,8.5196148 C90.699118,7.6875463 90.572501,7.0815925 90.319263,6.7017352 C90.066025,6.3218779 89.61382,6.131952 88.962636,6.131952 L88.962636,5.5621689 C89.541467,5.6164342 90.1022,5.6435665 90.644853,5.6435665 C92.254725,5.6435665 93.575162,5.5169493 94.606203,5.263711 L94.606203,7.7056388 C95.420183,6.0234135 96.903413,5.1823134 99.055938,5.1823134 Z M111.499903,5.5621689 L114.701542,5.5621689 L114.701542,6.1048195 L111.499903,6.1048195 L111.499903,17.0663621 C111.499903,17.6090154 111.594866,17.9933891 111.784795,18.2194947 C111.974724,18.4456002 112.277701,18.5586513 112.693735,18.5586513 C113.471538,18.5586513 114.086536,18.0160061 114.538747,16.9306994 L115,17.1748922 C114.312639,19.038002 113.073599,19.9695429 111.282843,19.9695429 C110.089006,19.9695429 109.184597,19.662044 108.56959,19.0470369 C108.189733,18.6671795 107.931976,18.192365 107.796313,17.622579 C107.66065,17.052793 107.592819,16.2704795 107.592819,15.275615 L107.592819,6.1048195 L105.313686,6.1048195 L105.313686,5.5621689 L107.592819,5.5621689 L107.592819,1.9806748 C109.09416,1.9806748 110.396508,1.691264 111.499903,1.1124338 L111.499903,5.5621689 Z" id="Constant"></path>
        </g>
    </g>
</svg>