<?xml version="1.0" encoding="UTF-8"?>
<svg version="1.1" viewBox="0 0 1100.5 326.56" xml:space="preserve" xmlns="http://www.w3.org/2000/svg" xmlns:cc="http://creativecommons.org/ns#" xmlns:dc="http://purl.org/dc/elements/1.1/" xmlns:rdf="http://www.w3.org/1999/02/22-rdf-syntax-ns#"><metadata><rdf:RDF><cc:Work rdf:about=""><dc:format>image/svg+xml</dc:format><dc:type rdf:resource="http://purl.org/dc/dcmitype/StillImage"/><dc:title/></cc:Work></rdf:RDF></metadata><g transform="matrix(1.3333 0 0 -1.3333 -37.677 527.42)" fill="#2699fb"><g transform="translate(-56.25 79.167)" fill="#2699fb"><g transform="translate(-5.5843 -1.5452)"><g transform="translate(358.1 202.04)"><path d="m0 0c-3.284 0-6.12-0.587-8.512-1.759-2.391-1.174-4.41-2.743-6.05-4.713-1.641-1.969-2.954-4.174-3.938-6.612-0.985-2.439-1.759-4.948-2.321-7.526-0.564-2.581-0.94-5.065-1.126-7.456-0.19-2.392-0.282-4.527-0.282-6.402 0-8.536 1.429-14.772 4.292-18.711 2.859-3.939 6.915-5.909 12.168-5.909 4.314 0 7.831 1.383 10.552 4.15 2.719 2.766 4.854 6.096 6.402 9.989 1.546 3.89 2.602 7.925 3.165 12.098 0.562 4.173 0.843 7.714 0.843 10.622 0 6.846-1.173 12.262-3.516 16.25-2.346 3.985-6.239 5.979-11.677 5.979m2.954 21.806c6.845 0 12.708-0.963 17.586-2.884 4.875-1.923 8.863-4.737 11.958-8.442 3.095-3.706 5.346-8.208 6.753-13.504 1.406-5.301 2.11-11.326 2.11-18.079 0-3.752-0.259-7.833-0.774-12.24-0.517-4.409-1.455-8.841-2.814-13.295-1.36-4.455-3.213-8.746-5.556-12.872-2.346-4.128-5.37-7.786-9.074-10.973-3.706-3.19-8.138-5.746-13.295-7.667-5.16-1.922-11.255-2.885-18.289-2.885-7.787 0-14.234 1.174-19.345 3.517-5.112 2.343-9.193 5.509-12.239 9.497-3.049 3.985-5.205 8.698-6.472 14.138-1.266 5.439-1.899 11.255-1.899 17.445 0 7.316 0.844 14.466 2.533 21.455 1.687 6.986 4.523 13.2 8.51 18.64 3.986 5.439 9.262 9.824 15.828 13.155 6.564 3.328 14.723 4.994 24.479 4.994" fill="#2699fb"/></g><g transform="translate(443.22 143.23)"><path d="m0 0c5.252 0 9.448 1.126 12.592 3.377 3.14 2.251 5.556 5.11 7.245 8.581 1.688 3.469 2.813 7.268 3.376 11.396 0.563 4.125 0.845 8.019 0.845 11.676 0 3.94-0.26 7.387-0.775 10.341-0.516 2.954-1.406 5.416-2.673 7.386-1.265 1.97-3.024 3.447-5.275 4.431-2.251 0.986-5.064 1.478-8.441 1.478-1.034 0-2.346-0.049-3.94-0.141-1.596-0.094-3.516-0.235-5.767-0.421-0.19-3.472-0.422-7.576-0.704-12.311-0.282-4.737-0.587-9.707-0.915-14.912-0.329-5.206-0.681-10.459-1.054-15.757-0.376-5.3-0.752-10.2-1.126-14.702 1.407-0.189 2.673-0.306 3.799-0.352 1.125-0.048 2.061-0.07 2.813-0.07m-26.167 76.955c0.092 0.75 0.397 1.288 0.914 1.618 0.515 0.327 1.007 0.492 1.478 0.492 6.377 0 12.355 0.211 17.937 0.633 5.579 0.422 9.964 0.634 13.153 0.634 7.971 0 14.654-0.799 20.048-2.393 5.393-1.595 9.754-4.079 13.084-7.456 3.328-3.376 5.698-7.737 7.105-13.084 1.407-5.345 2.11-11.771 2.11-19.273 0-7.598-0.773-15.031-2.321-22.299-1.548-7.269-4.245-13.717-8.09-19.344-3.847-5.628-9.027-10.154-15.545-13.576-6.52-3.425-14.75-5.136-24.69-5.136-4.597 0-8.793 0.095-12.592 0.283-3.798 0.188-7.059 0.751-9.778 1.687-2.721 0.937-4.832 2.344-6.331 4.221-1.501 1.875-2.251 4.454-2.251 7.737 0 1.219 0.071 3.047 0.211 5.488 0.141 2.437 0.329 5.345 0.563 8.722 0.233 3.376 0.515 7.105 0.845 11.185 0.327 4.079 0.678 8.37 1.054 12.872 0.75 9.285 1.337 16.693 1.759 22.228 0.422 5.534 0.703 9.87 0.844 13.014 0.141 3.141 0.233 5.509 0.282 7.105 0.046 1.593 0.116 3.141 0.211 4.642" fill="#2699fb"/></g><g transform="translate(519.61 122.41)"><path d="m0 0c-5.254 0-9.004 1.031-11.255 3.095-2.251 2.062-3.377 5.016-3.377 8.863 0 1.875 0.141 5.087 0.422 9.637 0.281 4.549 0.655 9.729 1.126 15.546 0.468 5.814 0.937 11.959 1.406 18.429 0.469 6.472 0.937 12.568 1.407 18.289 0.469 5.72 0.844 10.739 1.126 15.054 0.282 4.313 0.422 7.267 0.422 8.863 0 1.407 0.749 2.111 2.251 2.111h7.738c5.252 0 8.884-1.01 10.903-3.025 2.016-2.018 3.024-4.995 3.024-8.933 0-0.471-0.024-0.893-0.07-1.267-0.048-0.376-0.07-0.798-0.07-1.266l-4.643-65.7h25.323c0.563 0 1.078-0.165 1.548-0.493 0.468-0.329 0.703-0.821 0.703-1.476l-0.562-8.301c-0.19-2.814-0.963-5.089-2.321-6.823-1.361-1.737-4.151-2.603-8.372-2.603z" fill="#2699fb"/></g><g transform="translate(631.03 122.41)"><path d="m0 0c-3.847 0-6.707 0.562-8.582 1.688-1.877 1.125-3.235 2.533-4.08 4.221-4.878 10.034-9.45 19.648-13.717 28.84-4.268 9.19-8.605 18.477-13.014 27.855 0.093-10.128 0.234-20.211 0.423-30.247 0.187-10.037 0.373-20.118 0.563-30.247 0-1.407-0.752-2.11-2.251-2.11h-7.738c-5.346 0-9.123 1.055-11.325 3.165-2.205 2.11-3.306 5.228-3.306 9.356 0 1.125 0.07 3.025 0.211 5.698 0.14 2.673 0.351 5.839 0.633 9.496 0.282 3.658 0.584 7.667 0.914 12.028 0.328 4.361 0.679 8.793 1.055 13.295 0.564 7.127 1.031 13.035 1.407 17.727 0.374 4.688 0.68 8.652 0.914 11.887 0.234 3.237 0.399 6.001 0.494 8.301 0.091 2.297 0.186 4.572 0.281 6.823 0 1.407 0.749 2.111 2.251 2.111h11.255c3.094 0 5.627-0.352 7.596-1.055 1.97-0.704 3.588-1.667 4.854-2.885 1.266-1.22 2.273-2.602 3.024-4.15 0.75-1.547 1.453-3.165 2.111-4.854 2.251-5.816 4.243-10.833 5.979-15.053 1.735-4.22 3.258-7.926 4.572-11.114 1.313-3.19 2.462-5.957 3.447-8.3 0.985-2.346 1.899-4.502 2.744-6.472 0.844-1.97 1.687-3.869 2.532-5.697 0.844-1.829 1.734-3.824 2.673-5.98 0 5.533-0.024 11.231-0.07 17.094-0.049 5.86-0.095 11.582-0.141 17.163-0.049 5.579-0.095 10.949-0.141 16.108-0.048 5.158-0.07 9.8-0.07 13.928 0 0.844 0.796 1.267 2.392 1.267h7.737c3.096 0 5.558-0.306 7.386-0.915 1.829-0.611 3.258-1.501 4.291-2.673 1.031-1.174 1.711-2.603 2.04-4.291 0.328-1.688 0.492-3.612 0.492-5.768 0-2.345-0.141-5.933-0.422-10.762-0.281-4.832-0.611-10.249-0.984-16.249-0.376-6.003-0.798-12.218-1.267-18.641-0.47-6.426-0.914-12.359-1.336-17.797-0.423-5.44-0.798-10.059-1.126-13.857-0.329-3.799-0.541-6.028-0.633-6.683 0-0.752-0.259-1.314-0.773-1.689-0.517-0.375-1.104-0.562-1.759-0.562z" fill="#2699fb"/></g><g transform="translate(692.23 164.47)"><path d="m0 0h16.179l-5.908 37.142zm16.883 57.822c2.343 0 4.29-0.446 5.838-1.337 1.548-0.892 2.836-2.064 3.869-3.517 1.031-1.455 1.875-3.118 2.532-4.994 0.655-1.877 1.218-3.798 1.689-5.768 3.75-15.194 6.844-27.715 9.285-37.563 2.437-9.848 4.361-17.796 5.767-23.846 1.408-6.05 2.392-10.529 2.955-13.436 0.563-2.908 0.844-4.924 0.844-6.049 0-1.315-0.306-2.205-0.914-2.673-0.611-0.47-1.572-0.703-2.885-0.703h-7.175c-4.033 0-7.245 0.492-9.636 1.477-2.392 0.984-4.221 2.413-5.488 4.291-1.265 1.875-2.179 4.15-2.743 6.823-0.562 2.673-1.033 5.698-1.406 9.074h-24.479l-4.643-19.414c-0.471-1.501-1.548-2.251-3.236-2.251h-7.456c-1.501 0-3.049 0.163-4.643 0.492-1.596 0.328-3.024 0.866-4.291 1.618-1.266 0.75-2.321 1.71-3.165 2.884-0.844 1.172-1.267 2.602-1.267 4.291 0 2.061 0.656 5.438 1.97 10.13 1.313 4.688 2.977 10.009 4.994 15.966 2.017 5.955 4.268 12.192 6.753 18.712 2.485 6.518 4.901 12.684 7.246 18.5 2.343 5.815 4.478 10.925 6.401 15.335 1.922 4.407 3.398 7.502 4.431 9.285 0.75 1.312 1.429 2.086 2.04 2.321 0.61 0.233 1.759 0.352 3.448 0.352z" fill="#2699fb"/></g><g transform="translate(828.41 168.27)"><path d="m0 0c-0.281-2.813-0.703-5.933-1.266-9.355-0.563-3.425-1.431-6.894-2.603-10.412-1.174-3.516-2.743-6.917-4.713-10.199-1.969-3.284-4.502-6.215-7.597-8.793-3.094-2.581-6.823-4.642-11.184-6.19-4.362-1.547-9.545-2.322-15.546-2.322-6.098 0-11.303 0.87-15.615 2.604-4.316 1.734-7.833 4.126-10.552 7.175-2.722 3.047-4.692 6.588-5.909 10.621-1.22 4.032-1.828 8.347-1.828 12.943 0 2.062 0.091 4.854 0.281 8.371 0.186 3.517 0.443 7.337 0.773 11.466 0.327 4.126 0.68 8.417 1.055 12.872 0.374 4.454 0.725 8.698 1.056 12.733 0.327 4.031 0.632 7.667 0.914 10.903 0.281 3.235 0.468 5.697 0.563 7.386 0.092 1.78 0.327 2.93 0.703 3.447 0.374 0.514 0.937 0.773 1.689 0.773h7.737c5.72 0 9.566-1.22 11.536-3.658 1.97-2.439 2.954-6.05 2.954-10.833 0-0.281-0.07-1.525-0.211-3.727-0.14-2.205-0.329-4.903-0.562-8.09-0.236-3.19-0.471-6.66-0.703-10.41-0.236-3.753-0.471-7.317-0.704-10.693-0.235-3.376-0.422-6.331-0.563-8.863s-0.211-4.221-0.211-5.064c0-1.596 0.07-3.425 0.211-5.488s0.515-4.033 1.126-5.908c0.608-1.877 1.594-3.447 2.954-4.713 1.359-1.266 3.306-1.899 5.838-1.899 3.188 0 5.791 1.077 7.809 3.235 2.015 2.157 3.563 4.735 4.642 7.738 1.077 3 1.829 6.049 2.251 9.145 0.422 3.095 0.726 5.627 0.914 7.597 0.374 4.783 0.775 9.707 1.197 14.772 0.421 5.065 0.795 9.799 1.125 14.209 0.328 4.407 0.585 8.252 0.774 11.536 0.186 3.282 0.281 5.533 0.281 6.753 0 1.875 0.141 3.071 0.422 3.588 0.281 0.514 0.891 0.773 1.829 0.773h7.737c3.188 0 5.699-0.281 7.527-0.844 1.829-0.563 3.212-1.314 4.15-2.251 0.937-0.939 1.524-2.018 1.759-3.236 0.233-1.219 0.352-2.486 0.352-3.798 0-1.22-0.071-3.517-0.211-6.894-0.141-3.376-0.306-7.223-0.493-11.536-0.189-4.315-0.421-8.771-0.703-13.365-0.282-4.596-0.611-8.63-0.985-12.099" fill="#2699fb"/></g><g transform="translate(889.04 202.6)"><path d="m0 0-5.346-78.08c-0.094-1.407-0.611-2.11-1.548-2.11h-7.737c-5.254 0-9.004 1.031-11.255 3.094s-3.377 5.017-3.377 8.864c0 1.407 0.071 3.517 0.211 6.331 0.141 2.813 0.353 6.12 0.634 9.918s0.584 7.924 0.914 12.38c0.327 4.454 0.68 8.956 1.056 13.506 0.373 4.548 0.724 9.075 1.054 13.576 0.328 4.502 0.633 8.674 0.915 12.521h-22.509c-1.033 0-1.548 0.655-1.548 1.97l0.422 7.878c0.093 1.217 0.303 2.414 0.633 3.588 0.328 1.171 0.866 2.226 1.618 3.165 0.75 0.937 1.71 1.688 2.884 2.251 1.171 0.563 2.602 0.844 4.291 0.844h62.886c0.563 0 1.077-0.141 1.547-0.422 0.469-0.281 0.704-0.798 0.704-1.547l-0.563-8.301c-0.189-2.814-0.962-5.089-2.322-6.823-1.36-1.737-4.149-2.603-8.37-2.603z" fill="#2699fb"/></g></g><path transform="translate(214.02 234.04)" d="m0 0c-0.884-5.644-1.575-9.508-2.049-11.602l-7.264-34.336-2.419-0.486c-1.608-0.485-2.979-0.722-4.102-0.722-1.457 0-2.827-0.249-4.112-0.723-1.781 0-3.389-0.087-4.836-0.249-1.456-0.161-3.065-0.4-4.835-0.722-2.579-0.486-4.922-0.724-7.015-0.724-1.123 0-2.018 0.076-2.656 0.238 0.96 2.74 1.933 5.557 2.902 8.463 0.962 2.903 1.847 5.806 2.657 8.709 0.648 2.245 1.6546 4.5118 1.8156 6.6168 1.2973 3.9717 2.0287 7.4785 3.0194 11.032 0.324 0.961 0.723 2.092 1.209 3.389 0.486 1.285 0.723 2.655 0.723 4.101 0.07946 0.86833 4.18e-4 1.2175 0.03921 2.2389-0.38188 2.6857-0.77205 3.6564-2.0902 4.8951-1.532 1.21-2.785 1.976-3.745 2.3-2.266 0.81-4.836 1.285-7.739 1.446-2.904 0.163-5.482 0.249-7.738 0.249-1.134 0-2.537-0.043-4.233-0.119-1.694-0.086-3.26-0.367-4.716-0.853-1.447-0.487-2.698-1.209-3.746-2.169-1.047-0.973-1.8798-2.1694-1.8798-3.9404 0-1.295-0.075-2.665-0.237-4.111-0.161-1.447-0.09618-3.0016-0.42018-4.2856-0.323-1.609-0.646-3.184-0.97-4.717-0.325-1.533-0.562-3.024-0.724-4.47-0.485-3.551-0.972-7.058-1.447-10.511-0.486-3.478-2.416-12.144-5.806-26.003-3.389-13.86-5.84-23.207-7.373-28.042-1.532-4.837-2.945-9.757-4.231-14.755-0.324-1.123-0.691-2.256-1.089-3.379-0.4-1.134-0.767-2.342-1.09-3.627-0.325-1.296-0.649-2.622-0.962-3.993-0.323-1.371-0.485-2.774-0.485-4.232 0-1.446 0.398-3.227 1.208-5.321 0.799-2.094 1.964-4.101 3.508-6.045 1.522-1.933 3.497-3.539 5.915-4.836 2.418-1.284 5.16-1.932 8.226-1.932 3.064 0 5.116 1.047 6.163 3.142 1.046 2.094 1.812 4.36 2.299 6.777 0.324 1.609 0.516 2.938 0.604 3.984 0.075 1.047 0.239 1.975 0.486 2.785 0.237 0.799 0.518 1.694 0.842 2.655 0.324 0.973 0.81 2.256 1.456 3.875 2.57 6.444 4.469 12.813 5.679 19.095 1.207 6.292 3.141 10.598 5.807 12.94 2.655 2.331 6.843 3.628 12.574 3.866 5.709 0.247 11.561 1.004 17.528 2.299-1.78-7.578-3.474-15.037-5.084-22.366-1.607-7.339-3.787-18.253-6.529-32.768-0.636-2.743-1.165-5.43-1.564-8.096-0.411-2.655-1.1492-5.2676-1.5881-7.9722-0.73657-4.5391-0.17081-5.8902 0.71419-8.7082 0.885-2.815 2.181-5.32 3.865-7.489 0.95-1.221 2.029-2.321 3.238-3.282-1.188-0.043-2.387-0.066-3.584-0.066-58.114 0-103.63 46.87-103.63 104.98 0 58.124 47.114 105.24 105.23 105.24 13.234 0 25.516-1.4559 37.173-5.9149-1.1133-2.2448-1.7561-3.8983-2.7234-6.3228-1.447-2.904-2.2437-5.926-3.1287-9.068-0.896-3.141-2.2758-6.1715-2.9128-8.5885-1.456-6.132-3.2368-12.136-4.1228-17.772" fill-rule="evenodd"/><g transform="translate(294.97 176.46)"><path d="m0 0c0-50.158-35.089-92.114-82.075-102.66-0.13994 7.6718 0.14004 14.174 1.241 21.08 0.324 2.018 0.724 4.156 1.209 6.412 0.324 2.256 0.768 4.468 1.327 6.648 0.572 2.181 1.575 7.859 3.024 17.044 1.78 7.901 3.711 15.759 5.807 23.575 3.6211 13.817 7.4238 28.156 9.907 38.564 0.325 0.485 0.574 1.209 0.735 2.181 0.313 0.798 0.562 1.565 0.723 2.3 0.163 0.721 0.325 1.165 0.485 1.327 3.38 14.83 5.56 23.767 6.519 26.832 0.973 3.066 1.858 6.132 2.666 9.186 0.8 2.742 1.492 5.57 2.053 8.463 0.561 2.903 1.338 5.72 2.299 8.473 1.122 3.701 2.904 7.404 5.32 11.117l0.4 0.713c23.422-19.299 38.36-48.529 38.36-81.256" fill="#2699fb" fill-rule="evenodd"/></g><g transform="rotate(7.6075 299.53 233.83)"><g transform="rotate(1.6982 -8020.8 7875.1)"><path d="m7.9381 22.581c-1.7245 7.2324 1.8572 15.313 7.9101 17.388-4.1877-3.4262-4.9215-7.6768-4.3099-12.613 0.89761 1.0288 1.6343 1.8714 2.5835 2.9549-1.0728-3.0843-2.0397-5.8676-3.0047-8.6516 0.05396-0.03766 0.11237-0.07782 0.16982-0.11768 1.7987 2.2322 3.5971 4.4634 5.6606 7.0256-0.4156-1.3949-0.72247-2.4256-1.0325-3.4658 3.0907 0.91066 6.7228 5.1595 8.0622 9.4087 1.078-5.2152-3.9579-11.686-10.501-15.251 0.50477 1.5709 0.95666 2.9803 1.4108 4.39-0.05337 0.04589-0.10896 0.09144-0.16043 0.1367-1.2274-1.4995-2.4638-2.9909-3.6753-4.4999-1.1908-1.481-2.3607-2.9815-3.7902-4.3655 1.28 3.6626 2.5624 7.3264 3.8434 10.989-0.06001 0.0449-0.11465 0.09014-0.1718 0.1341-0.96356-1.1145-1.9265-2.2272-2.9947-3.4621" fill="#2699fb" fill-rule="evenodd"/></g><path d="m235.04 282.01 5.4558 9.5825 6.3575 3.1731c5.3619 13.985 20.132 24.295 26.057 25.921 1.6259-5.925 0.29848-23.889-8.9912-35.637l0.51616-7.0866-5.4558-9.5825-4.4602 8.8614c-3.7463-1.028-3.7463-1.028-6.1504 0.34073-2.4041 1.3688-2.4041 1.3688-3.4321 5.115l-9.8967-0.6873m23.706 19.705c-2.2011-0.60402-3.4958-2.878-2.8918-5.0791 0.60401-2.2011 2.878-3.4958 5.0791-2.8918 2.2011 0.604 3.4958 2.878 2.8918 5.0791-0.604 2.2011-2.878 3.4958-5.0791 2.8918z" stroke-width="2.7552"/></g></g></g></svg>
