<svg width="88" height="32" viewBox="0 0 88 32" fill="none" xmlns="http://www.w3.org/2000/svg">
<path d="M62.9065 23.16H48.8344C49.4407 27.1101 56.1565 27.3252 60.9612 25.8928L62.4895 28.8205C62.7166 29.2556 62.5347 29.7941 62.0826 29.9851C59.6734 31.0029 57.6398 31.3982 55.5041 31.5322C54.8472 31.6068 54.2156 31.6565 53.6598 31.6565C53.2808 31.6565 52.9019 31.6316 52.5229 31.6316C49.3396 31.4577 46.8132 30.5137 44.9689 28.8492C40.5477 24.8494 40.9267 16.8747 45.1711 12.8749C49.2891 8.94965 56.5652 8.82544 60.8601 12.4277C62.8307 14.0922 64.0686 16.7008 64.0686 19.831V20.477C64.0686 21.5452 64.0181 23.16 62.9065 23.16ZM58.081 18.5889C57.4747 15.6822 55.1504 14.5891 53.2303 14.7133C51.0829 14.8375 48.9607 16.4027 48.607 18.5889H58.081Z" fill="#08CCC5"/>
<path d="M12.0496 0C13.7904 0 15.1984 1.34938 15.1984 2.99318C15.1984 4.63698 13.7904 5.96183 12.0496 5.96183C10.3088 5.96183 8.90073 4.63698 8.90073 2.99318C8.90073 1.34938 10.3088 0 12.0496 0Z" fill="#08CCC5"/>
<path d="M36.6214 31.2366C38.285 31.2366 39.6336 29.888 39.6336 28.2244V19.0966C39.6336 10.1278 30.5491 8.02161 22.9695 11.0197C22.2132 10.4747 21.1543 10.1278 19.8938 10.1278H18.0534V31.2366H21.243C22.9066 31.2366 24.2552 29.888 24.2552 28.2244V19.4434C24.2552 13.0513 33.4318 13.0018 33.4318 19.8398V31.2366H36.6214Z" fill="#08CCC5"/>
<path d="M84.9878 31.2366C86.6514 31.2366 88 29.888 88 28.2244V19.0857C88.0094 10.2319 79.0638 7.99904 71.3337 11C70.5778 10.4544 69.5194 10.1072 68.2846 10.1072H66.4199V31.2366H69.6067C71.2703 31.2366 72.6189 29.888 72.6189 28.2244V19.4319C72.6441 13.0336 81.7915 12.984 81.7915 19.8287V31.2366L84.9878 31.2366Z" fill="#08CCC5"/>
<path d="M15.1984 10.0763H11.913C10.2493 10.0763 8.90073 11.425 8.90073 13.0886V31.2366H12.1862C13.8498 31.2366 15.1984 29.888 15.1984 28.2244V10.0763Z" fill="#08CCC5"/>
<path fill-rule="evenodd" clip-rule="evenodd" d="M0 3.01222C0 1.34862 1.34862 0 3.01222 0H6.12977V28.2244C6.12977 29.888 4.78115 31.2366 3.11754 31.2366H0V3.01222Z" fill="#08CCC5"/>
</svg>
