<svg fill="none" height="38" viewBox="0 0 207 38" width="207" xmlns="http://www.w3.org/2000/svg"><g fill="#000"><path d="m177.715 26.3706c-.269.5432-1.613 2.4444-4.694 2.4444-3.569 0-6.526-3.3333-6.526-7.7284 0-4.395 2.957-7.0617 6.551-7.0617 2.933 0 4.327 1.7531 4.644 2.321v-2.0247h3.521v14.2222h-3.496zm-4.034-9.3827c-2.517 0-4.155 1.7531-4.155 4.074 0 2.2963 1.638 4.7408 4.155 4.7408 2.445 0 4.058-2.4445 4.058-4.7408s-1.613-4.074-4.058-4.074z"/><path d="m189.302 9.50635h-3.398v2.37035h3.398z"/><path d="m189.302 14.2471h-3.398v14.2469h3.398z"/><path d="m109.562 14.2471-3.373 3.4074v10.8395h3.373v-10.9136h7.065v-3.3333z"/><path d="m123.007 14.2471-3.373 3.4074v10.8395h3.373v-10.9136h4.962v10.9136h3.349v-10.9136h4.963v10.9136h3.373v-14.2469z"/><path d="m85.1662 17.5804v-3.3333h-5.769v-4.74075h-3.3489v15.60495l3.3489 3.3827h5.7935v-3.3086h-5.7935v-7.605z"/><path d="m203.627 14.2471h-9.632v14.2469h3.349v-10.9136h6.283v10.9136h3.373v-10.8395z"/></g><path d="m18.8226 0-18.8226 19.0123h18.8226l18.7982-19.0123z" fill="#00d364"/><path d="m18.8226 19.0122-18.8226 18.9877h18.8226l18.7982-18.9877z" fill="#00d364"/><path d="m66.0503 17.111c-1.2712-.1235-2.1512-.2469-3.3001-.3457-1.98-.2469-3.0801-.9876-3.0801-2.2716 0-1.3827 1.3445-2.2716 3.9112-2.2716 2.909 0 4.2779 1.1358 4.9135 2.0494h3.6912c-.6112-2.3951-2.8601-5.08644-8.6047-5.08644-4.4734 0-7.529 2.02464-7.529 5.43214 0 3.4074 2.6645 5.2345 6.4046 5.5802l3.3489.3457c1.9312.2469 3.2512.8395 3.2512 2.642 0 1.5308-1.5156 2.6172-4.3756 2.6172-2.7379 0-4.2535-1.0123-5.0113-2.0493h-3.9845c.9534 2.4938 3.4468 5.0864 8.9958 5.0864 5.329 0 7.9935-2.4938 7.9935-5.9013.0244-3.9506-2.8845-5.4814-6.6246-5.8271z" fill="#000"/><path d="m102.767 21.3333c0 4.3457-3.1293 7.5062-7.2116 7.5062-4.1312 0-7.2357-3.1605-7.2357-7.5062s3.1045-7.5062 7.2357-7.5062c4.1067 0 7.2116 3.1605 7.2116 7.5062zm-3.3982 0c0-2.4197-1.54-4.2963-3.789-4.2963-2.2489 0-3.8134 1.926-3.8134 4.2963 0 2.3704 1.5645 4.2963 3.8134 4.2963 2.249 0 3.789-1.8518 3.789-4.2963z" fill="#000"/><path d="m152.928 20.6174h6.624v3.8766c-.757.5432-2.42 1.1852-4.84 1.1852-4.131 0-6.698-2.7655-6.698-6.7161 0-3.7531 2.323-6.6173 6.038-6.6173 2.616 0 4.009 1.1852 4.62 1.9013h3.814c-.685-2.0247-3.007-5.08646-8.434-5.08646-5.647 0-9.656 4.12346-9.656 9.80246 0 5.8519 4.058 9.9013 10.292 9.9013 4.327 0 7.015-1.6544 8.287-2.8149v-8.4938h-10.047z" fill="#000"/></svg>